<svg width="23" height="24" viewBox="0 0 23 24" fill="none" xmlns="http://www.w3.org/2000/svg">
<g id="Group">
<path id="Vector" d="M11.4997 18.2649C14.9606 18.2649 17.7661 15.4593 17.7661 11.9985C17.7661 8.53772 14.9606 5.73218 11.4997 5.73218C8.03894 5.73218 5.2334 8.53772 5.2334 11.9985C5.2334 15.4593 8.03894 18.2649 11.4997 18.2649Z" stroke="#BC402A" stroke-miterlimit="10" stroke-linecap="round" stroke-linejoin="round"/>
<g id="Group_2">
<path id="Vector_2" d="M12.8435 1.08529C13.5303 1.08529 14.2171 1.54148 14.3224 2.37867C14.6332 2.0077 15.0392 1.84728 15.4353 1.84728C16.2724 1.84728 17.0745 2.55914 16.9141 3.56677C17.1798 3.39131 17.4605 3.3111 17.7313 3.3111C18.7238 3.3111 19.5761 4.36886 19.0697 5.43664C19.2251 5.38651 19.3805 5.36646 19.5259 5.36646C20.719 5.36646 21.5011 6.8403 20.6088 7.83791C20.6188 7.83791 20.6238 7.83791 20.6338 7.83791C22.1177 7.83791 22.6792 9.78799 21.4159 10.575C22.8596 10.9761 22.8596 13.0264 21.4159 13.4275C22.6792 14.2145 22.1177 16.1646 20.6338 16.1646C20.6238 16.1646 20.6188 16.1646 20.6088 16.1646C21.4961 17.1622 20.719 18.6361 19.5259 18.6361C19.3805 18.6361 19.2251 18.616 19.0697 18.5659C19.5761 19.6337 18.7238 20.6914 17.7313 20.6914C17.4605 20.6914 17.1798 20.6112 16.9141 20.4358C17.0745 21.4384 16.2674 22.1553 15.4353 22.1553C15.0392 22.1553 14.6332 21.9948 14.3224 21.6239C14.2121 22.456 13.5303 22.9172 12.8435 22.9172C12.3021 22.9172 11.7657 22.6365 11.5 22.0299C11.2343 22.6315 10.6929 22.9172 10.1565 22.9172C9.46969 22.9172 8.78291 22.4611 8.67764 21.6239C8.36682 21.9948 7.96076 22.1553 7.56473 22.1553C6.72755 22.1553 5.92545 21.4434 6.08587 20.4358C5.82017 20.6112 5.53944 20.6914 5.26873 20.6914C4.27614 20.6914 3.42393 19.6337 3.93025 18.5659C3.77485 18.616 3.61944 18.6361 3.47406 18.6361C2.28095 18.6361 1.4989 17.1622 2.39123 16.1646C2.38121 16.1646 2.3762 16.1646 2.36617 16.1646C0.882302 16.1646 0.320839 14.2145 1.58413 13.4275C0.140368 13.0264 0.140368 10.9761 1.58413 10.575C0.320839 9.78799 0.882302 7.83791 2.36617 7.83791C2.3762 7.83791 2.38121 7.83791 2.39123 7.83791C1.50392 6.8403 2.28095 5.36646 3.47406 5.36646C3.61944 5.36646 3.77485 5.38651 3.93025 5.43664C3.42393 4.36886 4.27614 3.3111 5.26873 3.3111C5.53944 3.3111 5.82017 3.39131 6.08587 3.56677C5.92545 2.56415 6.73256 1.84728 7.56473 1.84728C7.96076 1.84728 8.36682 2.0077 8.67764 2.37867C8.78792 1.5465 9.46969 1.08529 10.1565 1.08529C10.6979 1.08529 11.2343 1.36602 11.5 1.97261C11.7657 1.36602 12.3071 1.08529 12.8435 1.08529ZM12.8435 0.583984C12.3272 0.583984 11.8559 0.774481 11.5 1.11537C11.1441 0.779494 10.6728 0.583984 10.1565 0.583984C9.5098 0.583984 8.80797 0.914848 8.437 1.55151C8.17131 1.41616 7.87554 1.34096 7.56473 1.34096C6.9782 1.34096 6.40169 1.60665 6.02571 2.05282C5.82519 2.28342 5.68984 2.55412 5.61966 2.83987C5.50435 2.81982 5.38403 2.80478 5.26873 2.80478C4.59698 2.80478 3.9503 3.16572 3.57933 3.74724C3.36377 4.09314 3.25849 4.47915 3.27854 4.86515C2.58674 4.93534 1.97516 5.3815 1.67938 6.04322C1.46883 6.50944 1.45379 7.01075 1.60919 7.47195C1.05775 7.69253 0.636652 8.15373 0.461195 8.76533C0.29075 9.3669 0.396029 9.96846 0.731905 10.4447C0.270702 10.8056 0 11.3621 0 11.9937C0 12.6254 0.270702 13.1818 0.731905 13.5428C0.396029 14.019 0.29075 14.6206 0.461195 15.2222C0.636652 15.8338 1.05775 16.295 1.60919 16.5155C1.45379 16.9767 1.47385 17.4781 1.67938 17.9443C1.97516 18.606 2.59175 19.0522 3.27854 19.1223C3.2635 19.5134 3.36377 19.8944 3.57933 20.2403C3.9503 20.8218 4.59197 21.1827 5.26873 21.1827C5.38905 21.1827 5.50435 21.1727 5.61966 21.1476C5.68984 21.4334 5.82519 21.7041 6.02571 21.9347C6.40671 22.3808 6.98321 22.6465 7.56473 22.6465C7.87554 22.6465 8.17131 22.5764 8.437 22.436C8.81298 23.0726 9.5098 23.4035 10.1565 23.4035C10.6728 23.4035 11.1441 23.213 11.5 22.8721C11.8559 23.208 12.3272 23.4035 12.8435 23.4035C13.4902 23.4035 14.192 23.0726 14.563 22.436C14.8287 22.5713 15.1244 22.6465 15.4353 22.6465C16.0218 22.6465 16.5983 22.3808 16.9743 21.9347C17.1748 21.7041 17.3101 21.4334 17.3803 21.1476C17.4956 21.1677 17.616 21.1827 17.7313 21.1827C18.403 21.1827 19.0497 20.8218 19.4207 20.2403C19.6362 19.8944 19.7415 19.5083 19.7214 19.1223C20.4132 19.0522 21.0248 18.606 21.3206 17.9443C21.5312 17.4781 21.5462 16.9767 21.3908 16.5155C21.9422 16.295 22.3633 15.8338 22.5388 15.2222C22.7092 14.6206 22.604 14.019 22.2681 13.5428C22.7293 13.1818 23 12.6254 23 11.9937C23 11.3621 22.7293 10.8056 22.2681 10.4447C22.604 9.96846 22.7092 9.3669 22.5388 8.76533C22.3633 8.15373 21.9422 7.69253 21.3908 7.47195C21.5462 7.01075 21.5262 6.50944 21.3206 6.04322C21.0248 5.3815 20.4082 4.93534 19.7214 4.86515C19.7365 4.47413 19.6362 4.09314 19.4207 3.74724C19.0497 3.16572 18.408 2.80478 17.7313 2.80478C17.6109 2.80478 17.4956 2.8148 17.3803 2.83987C17.3101 2.55412 17.1748 2.28342 16.9743 2.05282C16.5933 1.60665 16.0168 1.34096 15.4353 1.34096C15.1244 1.34096 14.8287 1.41114 14.563 1.55151C14.192 0.914848 13.4952 0.583984 12.8435 0.583984Z" fill="#BC402A"/>
</g>
</g>
</svg>
