<svg width="25" height="27" viewBox="0 0 25 27" fill="none" xmlns="http://www.w3.org/2000/svg">
<g id="Group">
<path id="Vector" d="M5.84128 4.9125L5.8203 7.36723C5.80981 8.68376 5.48985 9.97932 4.8919 11.149L2.86203 15.1301C2.17492 16.4781 2.30604 18.0936 3.20296 19.3104C4.41459 20.9627 6.24516 22.0484 8.28028 22.3264L9.0618 22.4313C11.7368 22.7985 14.4591 22.3317 16.8614 21.1043L18.01 20.5168C19.3423 19.835 20.533 18.9118 21.5243 17.7946L24 14.9989L18.5031 12.8641C16.2214 11.9777 13.709 11.8623 11.3539 12.5442L8.44288 13.3834L8.9569 7.7711C9.03558 6.91614 9.07229 6.06118 9.07229 5.20622V3.3442C9.07229 2.35286 8.33797 1.50839 7.35188 1.37726L6.16647 1.21466C5.60524 1.13598 5.03352 1.28285 4.57719 1.61329L1 4.2044L6.61231 5.02264C7.13158 5.09608 7.6561 4.94396 8.04949 4.61876" stroke="#BC402A" stroke-miterlimit="10" stroke-linecap="round" stroke-linejoin="round"/>
<path id="Vector_2" d="M9.10913 17.8991C12.8752 18.8852 16.872 18.4866 20.3652 16.7714L23.9949 14.9985" stroke="#BC402A" stroke-miterlimit="10" stroke-linecap="round" stroke-linejoin="round"/>
<path id="Vector_3" d="M12.6496 22.426L12.5289 24.136L12.3349 24.5451C12.0359 25.1797 11.4694 25.657 10.7875 25.8406C10.3889 25.9508 9.96929 25.9508 9.56541 25.8511L8.47966 25.5784C8.36427 25.5364 8.41672 25.3738 8.55834 25.3266L10.3679 24.8336C10.9396 24.6762 11.3593 24.1884 11.4327 23.6009L11.5586 22.5467" stroke="#BC402A" stroke-width="0.7" stroke-miterlimit="10" stroke-linecap="round" stroke-linejoin="round"/>
<path id="Vector_4" d="M9.78733 22.51L9.50934 23.5538L9.46214 23.6273C8.92713 24.4403 8.0879 25.012 7.12804 25.206C6.79235 25.2742 6.44617 25.2323 6.1367 25.0854L5.53876 24.8022C5.37091 24.7235 5.40238 24.477 5.58072 24.4403L7.53716 24.0206C7.94628 23.9315 8.27673 23.6273 8.39212 23.2234L8.62815 22.3789" stroke="#BC402A" stroke-width="0.7" stroke-miterlimit="10" stroke-linecap="round" stroke-linejoin="round"/>
<path id="Vector_5" d="M4.74573 1.49805L4.21598 2.65723C4.05338 3.01914 4.03239 3.42826 4.16352 3.80067L4.49921 4.71333" stroke="#BC402A" stroke-miterlimit="10" stroke-linecap="round" stroke-linejoin="round"/>
<path id="Vector_6" d="M5.37329 2.57838C5.37329 2.31612 5.58834 2.10107 5.8506 2.10107C6.11286 2.10107 6.32791 2.31612 6.32791 2.57838" stroke="#BC402A" stroke-width="0.4" stroke-miterlimit="10" stroke-linecap="round" stroke-linejoin="round"/>
<path id="Vector_7" d="M8.43677 13.3833V14.9936" stroke="#BC402A" stroke-miterlimit="10" stroke-linecap="round" stroke-linejoin="round"/>
</g>
</svg>
