<svg width="27" height="28" viewBox="0 0 27 28" fill="none" xmlns="http://www.w3.org/2000/svg">
<g id="Group">
<path id="Vector" d="M18.8669 12.5192V4.17001C18.8669 2.19603 20.4712 0.591797 22.4452 0.591797V8.94095C22.4452 10.9149 20.8409 12.5192 18.8669 12.5192Z" stroke="#BC402A" stroke-miterlimit="10" stroke-linecap="round" stroke-linejoin="round"/>
<path id="Vector_2" d="M15.2891 16.2462V7.89706C15.2891 5.92308 16.8933 4.31885 18.8673 4.31885V12.668C18.8673 14.642 17.263 16.2462 15.2891 16.2462Z" stroke="#BC402A" stroke-miterlimit="10" stroke-linecap="round" stroke-linejoin="round"/>
<path id="Vector_3" d="M11.7112 19.9738V11.6246C11.7112 9.65062 13.3154 8.04639 15.2894 8.04639V16.3955C15.2894 18.3695 13.6852 19.9738 11.7112 19.9738Z" stroke="#BC402A" stroke-miterlimit="10" stroke-linecap="round" stroke-linejoin="round"/>
<path id="Vector_4" d="M8.13354 23.701V15.3519C8.13354 13.3779 9.73778 11.7737 11.7118 11.7737V20.1228C11.7118 22.0968 10.1075 23.701 8.13354 23.701Z" stroke="#BC402A" stroke-miterlimit="10" stroke-linecap="round" stroke-linejoin="round"/>
<path id="Vector_5" d="M4.55566 27.4286V19.0794C4.55566 17.1055 6.15989 15.5012 8.13387 15.5012V23.8504C8.13387 25.8244 6.52964 27.4286 4.55566 27.4286Z" stroke="#BC402A" stroke-miterlimit="10" stroke-linecap="round" stroke-linejoin="round"/>
<path id="Vector_6" d="M4.55436 20.1228C2.59231 20.1347 1 21.733 1 23.701H4.55436V20.1228Z" stroke="#BC402A" stroke-miterlimit="10" stroke-linecap="round" stroke-linejoin="round"/>
<path id="Vector_7" d="M22.4446 7.89706C24.4066 7.88513 25.9989 6.28686 25.9989 4.31885H22.4446V7.89706Z" stroke="#BC402A" stroke-miterlimit="10" stroke-linecap="round" stroke-linejoin="round"/>
</g>
</svg>
