<svg width="46" height="49" viewBox="0 0 46 49" fill="none" xmlns="http://www.w3.org/2000/svg">
<g clip-path="url(#clip0_1645_1127)">
<path d="M33.6282 0.290283H12.2856V3.49586H33.6282V0.290283Z" fill="#FBF5EC" stroke="#1B1B1B" stroke-width="0.7" stroke-miterlimit="10"/>
<path d="M22.9598 3.49585H14.0352L17.0996 16.173H22.9598H28.8143L31.8787 3.49585H22.9598Z" fill="#FBF5EC" stroke="#1B1B1B" stroke-width="0.7" stroke-miterlimit="10"/>
<path d="M26.2989 16.1731H19.6211V25.5343H26.2989V16.1731Z" fill="white" stroke="#1B1B1B" stroke-width="0.7" stroke-miterlimit="10"/>
<path d="M28.9346 28.0661H16.9798C16.288 28.0661 15.7334 27.497 15.7334 26.8001C15.7334 26.0975 16.2937 25.5342 16.9798 25.5342H28.9289C29.6206 25.5342 30.1752 26.1033 30.1752 26.8001C30.1752 27.5028 29.6149 28.0661 28.9289 28.0661H28.9346Z" fill="white" stroke="#1B1B1B" stroke-width="0.7" stroke-miterlimit="10"/>
</g>
<path d="M27.1464 36.499C26.2164 36.919 25.3564 37.429 25.1964 38.049C24.9864 38.889 25.3764 39.459 28.1964 39.459C30.1964 39.459 30.9464 39.019 31.3664 38.299C29.7852 38.243 28.2812 37.6015 27.1464 36.499Z" fill="white" stroke="#1B1B1B" stroke-width="0.7" stroke-linecap="round" stroke-linejoin="round"/>
<path d="M40.9154 28.0395C40.9154 23.4295 38.5454 18.9595 31.4154 16.6995C24.2854 14.4395 20.1154 17.0995 17.0754 16.6995C14.0354 16.2995 12.0754 13.0195 7.68541 13.4595C4.15541 13.8095 3.73541 14.8695 2.24541 15.0095C0.755413 15.1495 0.615413 16.4995 1.75541 18.2295C2.75541 19.7195 5.48541 21.9995 8.17541 21.9795C9.64187 24.4643 11.3755 26.7814 13.3454 28.8895C15.4954 31.4395 14.4654 35.8895 14.2254 36.3295C13.9854 36.7695 13.1654 36.9595 13.4454 38.0595C13.6554 38.8595 16.0654 38.8795 17.1154 38.7295C18.0054 38.5995 19.1154 36.3595 19.6554 33.3795C23.9954 35.3295 26.0554 34.8795 26.0654 34.8795C27.9354 38.9895 33.6854 38.8795 35.6454 37.0095C39.4154 35.8495 40.9154 32.0695 40.9154 28.0395Z" fill="#FBF5EC"/>
<path d="M26.0653 34.8794C25.8209 34.3351 25.6527 33.7597 25.5653 33.1694C23.5653 33.9394 20.7453 33.0894 19.6953 32.8994V33.3794C23.9953 35.3294 26.0553 34.8794 26.0653 34.8794Z" fill="white"/>
<path d="M31.6149 19.4986C36.5549 21.7986 38.4649 22.1386 40.8349 26.5986C40.3749 22.5186 37.8349 18.7186 31.4149 16.6986C24.2749 14.4386 20.1149 17.0986 17.0749 16.6986C16.4556 16.6191 15.854 16.4366 15.2949 16.1586C15.9649 17.5786 16.8849 18.2386 19.0649 18.1586C21.9449 18.0586 25.9849 16.8786 31.6149 19.4986Z" fill="#FBF5EC"/>
<path d="M40.9154 28.0395C40.9154 23.4295 38.5454 18.9595 31.4154 16.6995C24.2854 14.4395 20.1154 17.0995 17.0754 16.6995C14.0354 16.2995 12.0754 13.0195 7.68541 13.4595C4.15541 13.8095 3.73541 14.8695 2.24541 15.0095C0.755413 15.1495 0.615413 16.4995 1.75541 18.2295C2.75541 19.7195 5.48541 21.9995 8.17541 21.9795C9.64187 24.4643 11.3755 26.7814 13.3454 28.8895C15.4954 31.4395 14.4654 35.8895 14.2254 36.3295C13.9854 36.7695 13.1654 36.9595 13.4454 38.0595C13.6554 38.8595 16.0654 38.8795 17.1154 38.7295C18.0054 38.5995 19.1154 36.3595 19.6554 33.3795C23.9954 35.3295 26.0554 34.8795 26.0654 34.8795C27.9354 38.9895 33.6854 38.8795 35.6454 37.0095C39.4154 35.8495 40.9154 32.0695 40.9154 28.0395Z" stroke="#1B1B1B" stroke-width="0.7" stroke-linecap="round" stroke-linejoin="round"/>
<path d="M10.5059 14.0186C10.5059 14.0186 13.5059 10.1086 17.1459 11.1886C20.7859 12.2686 18.3559 17.2586 15.2059 18.0586C12.0559 18.8586 11.2059 17.0586 11.2059 17.0586" fill="white"/>
<path d="M15.9859 12.8386C17.9359 13.4086 18.1459 15.0986 17.4459 16.6786C19.1959 14.8686 19.7959 11.9786 17.1159 11.1886C13.5059 10.1086 10.5059 14.0186 10.5059 14.0186L10.6059 14.4086C11.7759 13.3786 13.7559 12.1786 15.9859 12.8386Z" fill="#FBF5EC"/>
<path d="M10.5059 14.0186C10.5059 14.0186 13.5059 10.1086 17.1459 11.1886C20.7859 12.2686 18.3559 17.2586 15.2059 18.0586C12.0559 18.8586 11.2059 17.0586 11.2059 17.0586M39.8659 33.2586C42.7759 33.2586 45.5059 34.5686 45.5059 37.5986C45.5059 42.0686 37.7159 43.2186 26.3259 43.7986C14.9359 44.3786 12.1359 46.5586 10.5059 47.7186M26.0659 34.8786C24.6359 31.6186 26.1859 28.5086 27.1259 27.9886" stroke="#1B1B1B" stroke-width="0.7" stroke-linecap="round" stroke-linejoin="round"/>
<path d="M14.7461 13.6191C13.2317 13.9642 11.897 14.8539 10.9961 16.1191L11.2161 17.0291C11.5961 17.8491 12.9161 18.6291 15.2161 18.0291C15.9078 17.8461 16.539 17.4839 17.0461 16.9791C19.1561 15.0091 17.6761 12.8791 14.7461 13.6191Z" fill="#C5A767" stroke="#1B1B1B" stroke-width="0.7" stroke-linecap="round" stroke-linejoin="round"/>
<path d="M8.50596 16.3387C8.50794 16.5211 8.45568 16.6999 8.3558 16.8525C8.25592 17.0051 8.11294 17.1246 7.94502 17.1958C7.77709 17.2669 7.5918 17.2866 7.41269 17.2522C7.23357 17.2179 7.06871 17.1311 6.93904 17.0028C6.80938 16.8745 6.72076 16.7106 6.68444 16.5319C6.64812 16.3532 6.66575 16.1677 6.73508 15.999C6.80441 15.8303 6.92231 15.686 7.07381 15.5845C7.22532 15.4829 7.40358 15.4287 7.58596 15.4287C7.82824 15.4287 8.06074 15.5243 8.23299 15.6946C8.40524 15.865 8.50333 16.0964 8.50596 16.3387Z" fill="#1B1B1B"/>
<defs>
<clipPath id="clip0_1645_1127">
<rect width="21.9143" height="42.1429" fill="white" transform="translate(12)"/>
</clipPath>
</defs>
</svg>
