<svg width="16" height="9" viewBox="0 0 16 9" fill="none" xmlns="http://www.w3.org/2000/svg">
<path d="M8.10202 7.2773L14.809 0.579298C14.8741 0.513846 14.9517 0.462126 15.0372 0.427202C15.1226 0.392278 15.2142 0.374859 15.3066 0.375978C15.3989 0.377097 15.49 0.396731 15.5746 0.433716C15.6592 0.470702 15.7355 0.524287 15.799 0.591298C15.9291 0.728363 16.0007 0.910761 15.9984 1.09973C15.9962 1.28871 15.9203 1.46936 15.787 1.6033L8.58402 8.7963C8.51939 8.86137 8.44244 8.9129 8.35766 8.94789C8.27288 8.98287 8.18198 9.0006 8.09027 9.00004C7.99855 8.99948 7.90787 8.98064 7.82353 8.94463C7.73918 8.90862 7.66286 8.85615 7.59902 8.7903L0.204024 1.2193C0.0731467 1.08376 0 0.902709 0 0.714298C0 0.525886 0.0731467 0.344834 0.204024 0.209298C0.268336 0.143073 0.345284 0.0904257 0.430309 0.0544748C0.515335 0.018524 0.60671 0 0.699024 0C0.791338 0 0.882713 0.018524 0.967739 0.0544748C1.05276 0.0904257 1.12971 0.143073 1.19402 0.209298L8.10202 7.2773Z" fill="currentColor"/>
</svg>
