<svg width="34" height="33" viewBox="0 0 34 33" fill="none" xmlns="http://www.w3.org/2000/svg">
<path d="M26.2812 25.625C27.1874 25.625 28.0564 25.985 28.6972 26.6257C29.3379 27.2665 29.6979 28.1355 29.6979 29.0417C29.6979 29.9478 29.3379 30.8169 28.6972 31.4576C28.0564 32.0984 27.1874 32.4583 26.2812 32.4583C25.3751 32.4583 24.5061 32.0984 23.8653 31.4576C23.2246 30.8169 22.8646 29.9478 22.8646 29.0417C22.8646 28.1355 23.2246 27.2665 23.8653 26.6257C24.5061 25.985 25.3751 25.625 26.2812 25.625ZM26.2812 27.3333C25.8282 27.3333 25.3937 27.5133 25.0733 27.8337C24.7529 28.1541 24.5729 28.5886 24.5729 29.0417C24.5729 29.4947 24.7529 29.9293 25.0733 30.2496C25.3937 30.57 25.8282 30.75 26.2812 30.75C26.7343 30.75 27.1688 30.57 27.4892 30.2496C27.8096 29.9293 27.9896 29.4947 27.9896 29.0417C27.9896 28.5886 27.8096 28.1541 27.4892 27.8337C27.1688 27.5133 26.7343 27.3333 26.2812 27.3333ZM10.9062 25.625C11.8124 25.625 12.6814 25.985 13.3222 26.6257C13.9629 27.2665 14.3229 28.1355 14.3229 29.0417C14.3229 29.9478 13.9629 30.8169 13.3222 31.4576C12.6814 32.0984 11.8124 32.4583 10.9062 32.4583C10.0001 32.4583 9.13105 32.0984 8.4903 31.4576C7.84955 30.8169 7.48958 29.9478 7.48958 29.0417C7.48958 28.1355 7.84955 27.2665 8.4903 26.6257C9.13105 25.985 10.0001 25.625 10.9062 25.625ZM10.9062 27.3333C10.4532 27.3333 10.0187 27.5133 9.69828 27.8337C9.3779 28.1541 9.19792 28.5886 9.19792 29.0417C9.19792 29.4947 9.3779 29.9293 9.69828 30.2496C10.0187 30.57 10.4532 30.75 10.9062 30.75C11.3593 30.75 11.7938 30.57 12.1142 30.2496C12.4346 29.9293 12.6146 29.4947 12.6146 29.0417C12.6146 28.5886 12.4346 28.1541 12.1142 27.8337C11.7938 27.5133 11.3593 27.3333 10.9062 27.3333ZM29.6979 5.125H6.2425L10.5988 15.375H24.5729C25.1367 15.375 25.6321 15.1017 25.9396 14.6917L31.0646 7.85833C31.2867 7.56792 31.4062 7.20917 31.4062 6.83333C31.4062 6.38025 31.2263 5.94573 30.9059 5.62536C30.5855 5.30499 30.151 5.125 29.6979 5.125ZM24.5729 17.0833H10.6842L9.36875 19.7483L9.19792 20.5C9.19792 20.9531 9.3779 21.3876 9.69828 21.708C10.0187 22.0283 10.4532 22.2083 10.9062 22.2083H29.6979V23.9167H10.9062C10.0001 23.9167 9.13105 23.5567 8.4903 22.9159C7.84955 22.2752 7.48958 21.4062 7.48958 20.5C7.48908 19.9204 7.63605 19.3501 7.91667 18.8429L9.14667 16.3317L2.94542 1.70833H0.65625V0H4.07292L5.525 3.41667H29.6979C30.6041 3.41667 31.4731 3.77664 32.1139 4.41738C32.7546 5.05813 33.1146 5.92718 33.1146 6.83333C33.1146 7.6875 32.8242 8.405 32.3458 8.98583L27.3746 15.6312C26.7596 16.5025 25.7346 17.0833 24.5729 17.0833Z" fill="currentColor"/>
</svg>
