<svg width="20" height="13" viewBox="0 0 20 13" fill="none" xmlns="http://www.w3.org/2000/svg">
<path d="M0.597537 0.588918C0.608809 0.577195 0.619179 0.575 0.625 0.575H19.375C19.3808 0.575 19.3912 0.577196 19.4025 0.588919C19.4145 0.601407 19.425 0.622989 19.425 0.65C19.425 0.677011 19.4145 0.698593 19.4025 0.711082C19.3912 0.722804 19.3808 0.725 19.375 0.725H0.625C0.619178 0.725 0.608809 0.722805 0.597537 0.711082C0.585528 0.698592 0.575 0.677009 0.575 0.65C0.575 0.622991 0.585528 0.601408 0.597537 0.588918ZM0.597537 4.48892C0.608808 4.4772 0.619177 4.475 0.625 4.475H19.375C19.3808 4.475 19.3912 4.4772 19.4025 4.48892C19.4145 4.50141 19.425 4.52299 19.425 4.55C19.425 4.57701 19.4145 4.59859 19.4025 4.61108C19.3912 4.6228 19.3808 4.625 19.375 4.625H0.625C0.619177 4.625 0.608808 4.6228 0.597537 4.61108C0.585528 4.59859 0.575 4.57701 0.575 4.55C0.575 4.52299 0.585528 4.50141 0.597537 4.48892ZM0.575 8.45C0.575 8.42299 0.585529 8.40141 0.597537 8.38892L0.183058 7.99038L0.597537 8.38892C0.608808 8.3772 0.619177 8.375 0.625 8.375H19.375C19.3808 8.375 19.3912 8.3772 19.4025 8.38892C19.4145 8.40141 19.425 8.42299 19.425 8.45C19.425 8.47701 19.4145 8.49859 19.4025 8.51108C19.3912 8.5228 19.3808 8.525 19.375 8.525H0.625C0.619177 8.525 0.608808 8.5228 0.597537 8.51108C0.585528 8.49859 0.575 8.47701 0.575 8.45ZM0.597537 12.2889C0.608808 12.2772 0.619177 12.275 0.625 12.275H13.125C13.1308 12.275 13.1412 12.2772 13.1525 12.2889C13.1645 12.3014 13.175 12.323 13.175 12.35C13.175 12.377 13.1645 12.3986 13.1525 12.4111C13.1412 12.4228 13.1308 12.425 13.125 12.425H0.625C0.619179 12.425 0.608809 12.4228 0.597537 12.4111C0.585529 12.3986 0.575 12.377 0.575 12.35C0.575 12.323 0.585528 12.3014 0.597537 12.2889Z" fill="currentColor" stroke="currentColor" stroke-width="1.15"/>
</svg>
