<svg width="16" height="21" viewBox="0 0 16 21" fill="none" xmlns="http://www.w3.org/2000/svg">
<path d="M10.9319 10.5004C13.076 8.80097 15.5391 6.67883 15.972 3.47681C16.0911 2.59645 15.8191 1.70996 15.2262 1.04313C14.636 0.379797 13.7844 0 12.8893 0H3.11047C2.21534 0 1.36378 0.381548 0.773544 1.04401C0.180646 1.71259 -0.0922475 2.59995 0.0277544 3.48118C0.462428 6.68058 2.9238 8.80185 5.06694 10.5004C2.9238 12.199 0.462428 14.3203 0.0277544 17.5197C-0.0913586 18.3992 0.179757 19.2865 0.773544 19.9534C1.36555 20.6185 2.2189 21 3.1158 21H12.884C13.7809 21 14.6351 20.6185 15.2262 19.9542C15.8191 19.2874 16.0911 18.4018 15.9729 17.5241C15.54 14.322 13.076 12.1999 10.9319 10.5004ZM14.5569 19.3784C14.1338 19.8545 13.524 20.1266 12.8831 20.1266H3.11491C2.47401 20.1266 1.86512 19.8536 1.442 19.3775C1.0171 18.8997 0.822433 18.2653 0.907768 17.637C1.32466 14.5671 3.94693 12.5018 6.05451 10.8426C6.16029 10.7595 6.22163 10.6343 6.22163 10.5004C6.22163 10.3665 6.16029 10.2414 6.05451 10.1583C3.94782 8.49906 1.32555 6.4338 0.907768 3.36392C0.821544 2.73297 1.0171 2.09764 1.442 1.61983C1.86334 1.14552 2.47135 0.873359 3.10958 0.873359H12.8884C13.5275 0.873359 14.1346 1.14552 14.556 1.61895C14.9809 2.09589 15.1747 2.73122 15.0893 3.35954C14.6742 6.43205 12.0511 8.49819 9.94346 10.1583C9.83857 10.2414 9.77635 10.3665 9.77635 10.5004C9.77635 10.6343 9.83768 10.7595 9.94346 10.8426C12.0511 12.5018 14.6742 14.5688 15.0893 17.6413C15.1747 18.2688 14.9809 18.9015 14.5569 19.3784ZM8.65455 12.9892C8.57011 12.9227 8.49011 12.8519 8.41544 12.7757C8.24833 12.6086 7.94699 12.6086 7.77899 12.7757C7.70432 12.8519 7.62521 12.9227 7.53898 12.9892C5.7274 14.4166 3.85359 15.8911 3.31936 17.8225C3.28292 17.9537 3.31136 18.0955 3.39492 18.204C3.47936 18.3125 3.61003 18.3755 3.74781 18.3755H12.4422C12.5808 18.3755 12.7124 18.3125 12.7951 18.204C12.8795 18.0955 12.9071 17.9546 12.8697 17.8225C12.3248 15.8797 10.3728 14.343 8.65189 12.9892H8.65455ZM4.3816 17.5004C5.03405 16.0836 6.58697 14.8594 8.09721 13.671C9.5319 14.8007 11.1364 16.0635 11.8075 17.5004H4.3816Z" fill="currentColor"/>
</svg>
