<svg width="29" height="31" viewBox="0 0 29 31" fill="none" xmlns="http://www.w3.org/2000/svg">
<path d="M2.07227 15.5206L14.5008 2.57422L26.9294 15.5206" stroke="currentColor" stroke-linecap="round" stroke-linejoin="round"/>
<path d="M4.83423 12.6436V24.1515C4.83423 24.533 4.97972 24.8989 5.2387 25.1687C5.49768 25.4384 5.84893 25.59 6.21518 25.59H10.358C10.7243 25.59 11.0755 25.4384 11.3345 25.1687C11.5935 24.8989 11.739 24.533 11.739 24.1515V18.3975C11.739 18.016 11.8845 17.6501 12.1435 17.3804C12.4024 17.1106 12.7537 16.959 13.1199 16.959H15.8818C16.2481 16.959 16.5994 17.1106 16.8583 17.3804C17.1173 17.6501 17.2628 18.016 17.2628 18.3975V24.1515C17.2628 24.533 17.4083 24.8989 17.6673 25.1687C17.9263 25.4384 18.2775 25.59 18.6438 25.59H22.7866C23.1529 25.59 23.5041 25.4384 23.7631 25.1687C24.0221 24.8989 24.1676 24.533 24.1676 24.1515V12.6436" stroke="currentColor" stroke-linecap="round" stroke-linejoin="round"/>
</svg>
