<svg width="33" height="35" viewBox="0 0 33 35" fill="none" xmlns="http://www.w3.org/2000/svg">
<path d="M24.3477 19.9666L27.9887 23.7593C28.1055 23.8804 28.1982 24.0243 28.2614 24.1829C28.3247 24.3414 28.3573 24.5114 28.3573 24.6831C28.3573 24.8548 28.3247 25.0248 28.2614 25.1833C28.1982 25.3419 28.1055 25.4858 27.9887 25.6069C26.7083 26.9409 25.009 27.7489 23.2027 27.8825C21.3964 28.0162 19.6045 27.4666 18.156 26.3345L15.9904 24.6416C13.5931 22.7686 11.4634 20.5503 9.6654 18.053L8.04015 15.7972C6.95342 14.2883 6.42576 12.4217 6.55407 10.5402C6.68239 8.65866 7.45807 6.88851 8.73865 5.55485C8.85492 5.43316 8.99312 5.3366 9.14532 5.27071C9.29752 5.20482 9.46071 5.1709 9.62553 5.1709C9.79035 5.1709 9.95354 5.20482 10.1057 5.27071C10.2579 5.3366 10.3961 5.43316 10.5124 5.55485L14.1534 9.34756C14.4112 9.61615 14.556 9.9804 14.556 10.3602C14.556 10.74 14.4112 11.1042 14.1534 11.3728L12.7495 12.8352C12.64 12.9482 12.5676 13.0945 12.5429 13.253C12.5182 13.4116 12.5424 13.5742 12.612 13.7175C14.2434 17.1167 16.8893 19.8729 20.1525 21.5722C20.2901 21.6447 20.4462 21.6699 20.5984 21.6442C20.7506 21.6184 20.8911 21.5431 20.9995 21.4289L22.402 19.968C22.5297 19.8348 22.6814 19.7292 22.8483 19.6571C23.0152 19.585 23.1941 19.5479 23.3748 19.5479C23.5555 19.5479 23.7345 19.585 23.9014 19.6571C24.0683 19.7292 24.22 19.8348 24.3477 19.968V19.9666Z" stroke="currentColor"/>
</svg>
