<svg width="21" height="21" viewBox="0 0 21 21" fill="none" xmlns="http://www.w3.org/2000/svg">
<path d="M8.35872 7.41667L12.8607 1L18.1121 4.67906L16.1973 7.41667H8.35872ZM8.35872 7.41667H3.75977L7.51377 2.06927L10.6256 4.20833L8.35872 7.41667Z" stroke="currentColor" stroke-width="0.92" stroke-linecap="round" stroke-linejoin="round"/>
<path d="M19.1807 7.41675H2.06927C1.47894 7.41675 1 7.89569 1 8.48602V19.1808C1 19.7711 1.47894 20.2501 2.06927 20.2501H19.1807C19.7711 20.2501 20.25 19.7711 20.25 19.1808V8.48602C20.25 7.89569 19.7711 7.41675 19.1807 7.41675Z" stroke="currentColor" stroke-width="0.92" stroke-linecap="round" stroke-linejoin="round"/>
<path d="M14.9033 11.6951H20.2507V15.9732H14.9033C14.7628 15.9732 14.6237 15.9455 14.4939 15.8917C14.3642 15.838 14.2463 15.7592 14.147 15.6598C14.0477 15.5605 13.9689 15.4425 13.9152 15.3128C13.8615 15.183 13.8339 15.0439 13.834 14.9034V12.7649C13.834 12.4812 13.9466 12.2092 14.1471 12.0086C14.3476 11.808 14.6196 11.6952 14.9033 11.6951Z" stroke="currentColor" stroke-width="0.92" stroke-linecap="round" stroke-linejoin="round"/>
</svg>
