<svg width="20" height="20" viewBox="0 0 20 20" fill="none" xmlns="http://www.w3.org/2000/svg">
<path d="M10 0.479167C12.5251 0.479167 14.9467 1.48225 16.7322 3.26775C18.5177 5.05326 19.5208 7.47492 19.5208 10C19.5208 12.5251 18.5177 14.9467 16.7322 16.7322C14.9467 18.5177 12.5251 19.5208 10 19.5208C7.47492 19.5208 5.05326 18.5177 3.26775 16.7322C1.48225 14.9467 0.479167 12.5251 0.479167 10C0.479167 7.47492 1.48225 5.05326 3.26775 3.26775C5.05326 1.48225 7.47492 0.479167 10 0.479167ZM10 0.573465C7.49993 0.573465 5.10225 1.56662 3.33443 3.33443C1.56662 5.10225 0.573465 7.49993 0.573465 10C0.573465 12.5001 1.56661 14.8977 3.33443 16.6656C5.10225 18.4334 7.49993 19.4265 10 19.4265C11.2379 19.4265 12.4637 19.1827 13.6074 18.709C14.7511 18.2353 15.7902 17.5409 16.6656 16.6656C17.5409 15.7902 18.2353 14.7511 18.709 13.6074C19.1827 12.4637 19.4265 11.2379 19.4265 10C19.4265 7.49993 18.4334 5.10225 16.6656 3.33443C14.8977 1.56661 12.5001 0.573465 10 0.573465ZM10.0471 6.88926H9.95285V5.74232H10.0471V6.88926ZM10.0471 14.2577H9.95285V9.95285H10.0471V14.2577Z" fill="currentColor" stroke="currentColor" stroke-width="0.958333"/>
</svg>
