<svg width="21" height="22" viewBox="0 0 21 22" fill="none" xmlns="http://www.w3.org/2000/svg">
<path d="M8.88461 8.25C8.88461 8.14581 8.84207 8.04588 8.76633 7.97221C8.6906 7.89853 8.58788 7.85714 8.48077 7.85714C8.37366 7.85714 8.27094 7.89853 8.19521 7.97221C8.11947 8.04588 8.07692 8.14581 8.07692 8.25V16.8929C8.07692 16.997 8.11947 17.097 8.19521 17.1706C8.27094 17.2443 8.37366 17.2857 8.48077 17.2857C8.58788 17.2857 8.6906 17.2443 8.76633 17.1706C8.84207 17.097 8.88461 16.997 8.88461 16.8929V8.25ZM12.5192 7.85714C12.6263 7.85714 12.7291 7.89853 12.8048 7.97221C12.8805 8.04588 12.9231 8.14581 12.9231 8.25V16.8929C12.9231 16.997 12.8805 17.097 12.8048 17.1706C12.7291 17.2443 12.6263 17.2857 12.5192 17.2857C12.4121 17.2857 12.3094 17.2443 12.2337 17.1706C12.1579 17.097 12.1154 16.997 12.1154 16.8929V8.25C12.1154 8.14581 12.1579 8.04588 12.2337 7.97221C12.3094 7.89853 12.4121 7.85714 12.5192 7.85714ZM14.1346 3.53571V3.92857H20.5962C20.7033 3.92857 20.806 3.96996 20.8817 4.04364C20.9575 4.11731 21 4.21724 21 4.32143C21 4.42562 20.9575 4.52555 20.8817 4.59922C20.806 4.6729 20.7033 4.71429 20.5962 4.71429H18.5422L17.2273 18.7841C17.1452 19.6629 16.7283 20.4801 16.0585 21.0751C15.3887 21.6702 14.5143 22.0001 13.6072 22H7.39281C6.48569 22.0001 5.61133 21.6702 4.9415 21.0751C4.27166 20.4801 3.85477 19.6629 3.77273 18.7841L2.45781 4.71429H0.403846C0.296739 4.71429 0.19402 4.6729 0.118284 4.59922C0.042548 4.52555 0 4.42562 0 4.32143C0 4.21724 0.042548 4.11731 0.118284 4.04364C0.19402 3.96996 0.296739 3.92857 0.403846 3.92857H6.86538V3.53571C6.86538 2.59798 7.24832 1.69866 7.92994 1.03559C8.61156 0.372512 9.53604 0 10.5 0C11.464 0 12.3884 0.372512 13.0701 1.03559C13.7517 1.69866 14.1346 2.59798 14.1346 3.53571ZM7.67308 3.53571V3.92857H13.3269V3.53571C13.3269 2.80637 13.0291 2.1069 12.4989 1.59117C11.9688 1.07545 11.2497 0.785714 10.5 0.785714C9.75025 0.785714 9.03121 1.07545 8.50106 1.59117C7.97091 2.1069 7.67308 2.80637 7.67308 3.53571ZM3.26954 4.71429L4.578 18.7134C4.64187 19.3965 4.96593 20.0318 5.48656 20.4946C6.00719 20.9573 6.6868 21.214 7.392 21.2143H13.6064C14.3119 21.2144 14.9919 20.9578 15.5128 20.4951C16.0338 20.0323 16.3581 19.3968 16.422 18.7134L17.7313 4.71429H3.26954Z" fill="currentColor"/>
</svg>
