<svg width="39" height="33" viewBox="0 0 39 33" fill="none" xmlns="http://www.w3.org/2000/svg">
<path d="M36.3333 1C37.4735 1 38.3337 1.99882 37.8736 3.85663L32.2927 30.1257C31.9026 31.9935 30.7724 32.4429 29.2122 31.574L15.9001 21.7555C15.8484 21.7185 15.8064 21.6698 15.7774 21.6134C15.7483 21.5569 15.7332 21.4944 15.7332 21.4309C15.7332 21.3675 15.7483 21.3049 15.7774 21.2485C15.8064 21.192 15.8484 21.1433 15.9001 21.1063L31.2725 7.24264C31.9726 6.62337 31.1225 6.32372 30.2024 6.88307L10.9092 19.0387C10.8507 19.0768 10.7843 19.1011 10.715 19.1098C10.6457 19.1185 10.5753 19.1112 10.5092 19.0887L2.31786 16.5017C0.497567 15.9724 0.497567 14.7238 2.72793 13.8349L35.5032 1.20975C35.7635 1.08622 36.0456 1.01495 36.3333 1Z" stroke="currentColor" stroke-width="0.5" stroke-linecap="round" stroke-linejoin="round"/>
</svg>
