<svg width="18" height="21" viewBox="0 0 18 21" fill="none" xmlns="http://www.w3.org/2000/svg">
<path d="M9 0C7.60761 0 6.27226 0.553123 5.28769 1.53769C4.30312 2.52226 3.75 3.85761 3.75 5.25C3.75 6.64239 4.30312 7.97775 5.28769 8.96231C6.27226 9.94688 7.60761 10.5 9 10.5C10.3924 10.5 11.7277 9.94688 12.7123 8.96231C13.6969 7.97775 14.25 6.64239 14.25 5.25C14.25 3.85761 13.6969 2.52226 12.7123 1.53769C11.7277 0.553123 10.3924 0 9 0ZM4.5 5.25C4.5 4.05653 4.97411 2.91193 5.81802 2.06802C6.66193 1.22411 7.80653 0.75 9 0.75C10.1935 0.75 11.3381 1.22411 12.182 2.06802C13.0259 2.91193 13.5 4.05653 13.5 5.25C13.5 6.44347 13.0259 7.58807 12.182 8.43198C11.3381 9.27589 10.1935 9.75 9 9.75C7.80653 9.75 6.66193 9.27589 5.81802 8.43198C4.97411 7.58807 4.5 6.44347 4.5 5.25ZM2.625 12C1.92881 12 1.26113 12.2766 0.768845 12.7688C0.276562 13.2611 0 13.9288 0 14.625V15.1252C0 16.7377 2.0745 21 9 21C15.9255 21 18 16.737 18 15.1252V14.625C18 13.9288 17.7234 13.2611 17.2312 12.7688C16.7389 12.2766 16.0712 12 15.375 12H2.625ZM0.75 14.625C0.75 14.1277 0.947544 13.6508 1.29917 13.2992C1.65081 12.9475 2.12772 12.75 2.625 12.75H15.375C15.8723 12.75 16.3492 12.9475 16.7008 13.2992C17.0525 13.6508 17.25 14.1277 17.25 14.625V15.1252C17.25 16.263 15.5738 20.25 9 20.25C2.42625 20.25 0.75 16.263 0.75 15.1252V14.625Z" fill="currentColor"/>
</svg>
