<svg width="124" height="132" viewBox="0 0 124 132" fill="none" xmlns="http://www.w3.org/2000/svg">
<path d="M61.7188 0C49.512 0 37.5793 3.84263 27.4297 11.042C17.2801 18.2413 9.36943 28.474 4.69809 40.446C0.0267408 52.4181 -1.1955 65.5918 1.18594 78.3012C3.56737 91.0107 9.44551 102.685 18.077 111.848C26.7086 121.011 37.7058 127.251 49.678 129.779C61.6503 132.307 74.0599 131.01 85.3375 126.051C96.6152 121.092 106.254 112.694 113.036 101.92C119.818 91.145 123.438 78.4775 123.438 65.5191C123.42 48.1482 116.911 31.4942 105.341 19.2112C93.7701 6.92809 78.0821 0.0190765 61.7188 0ZM61.7188 125.797C50.4885 125.797 39.5104 122.261 30.1728 115.638C20.8352 109.015 13.5574 99.6006 9.25974 88.5863C4.9621 77.572 3.83765 65.4522 6.02856 53.7595C8.21948 42.0668 13.6274 31.3264 21.5684 22.8964C29.5094 14.4664 39.6268 8.72556 50.6413 6.39974C61.6558 4.07392 73.0726 5.26762 83.448 9.82988C93.8234 14.3921 102.691 22.1181 108.931 32.0307C115.17 41.9433 118.5 53.5973 118.5 65.5191C118.484 81.5004 112.496 96.8221 101.851 108.123C91.2061 119.423 76.7731 125.779 61.7188 125.797ZM90.1835 63.298L50.6835 37.0904C50.3099 36.8425 49.8806 36.7052 49.4401 36.6929C48.9997 36.6806 48.5642 36.7936 48.1788 37.0202C47.7934 37.2468 47.4721 37.5788 47.2484 37.9817C47.0246 38.3846 46.9065 38.8437 46.9063 39.3114V91.7267C46.9061 92.1946 47.0239 92.6541 47.2474 93.0573C47.471 93.4606 47.7922 93.7929 48.1777 94.0199C48.5448 94.2335 48.9564 94.3462 49.375 94.3475C49.8378 94.3471 50.2912 94.2086 50.6835 93.9478L90.1835 67.7402C90.538 67.5045 90.8303 67.177 91.0329 66.7885C91.2355 66.3999 91.3418 65.9632 91.3418 65.5191C91.3418 65.075 91.2355 64.6382 91.0329 64.2497C90.8303 63.8612 90.538 63.5337 90.1835 63.298ZM51.8438 86.9962V44.0419L84.2153 65.5191L51.8438 86.9962Z" fill="currentColor"/>
</svg>
