<svg width="35" height="35" viewBox="0 0 35 35" fill="none" xmlns="http://www.w3.org/2000/svg">
<path d="M17.5706 1C8.40926 1.01002 0.989989 8.44471 1.00001 17.6061C1.00235 20.3861 1.70402 23.121 3.04041 25.5588L1.76853 33.375L9.58478 32.1031C17.6092 36.5046 27.6839 33.5685 32.0854 25.5433C36.4869 17.5182 33.5515 7.44494 25.5264 3.04271C23.0881 1.70514 20.3517 1.00266 17.5706 1ZM9.28416 8.53104H13.8012C14.0057 8.53104 14.2017 8.61225 14.3463 8.75681C14.4909 8.90137 14.5721 9.09744 14.5721 9.30188C14.5468 10.3299 14.7195 11.3531 15.0808 12.3158C15.2364 12.6381 15.2706 13.0057 15.1772 13.3511C15.0837 13.6966 14.8689 13.9968 14.5721 14.1967L12.9919 15.7383C13.6925 17.1066 14.6087 18.3533 15.7052 19.4306C16.7738 20.545 18.0154 21.4795 19.3821 22.1979L20.9237 20.6177C21.6946 19.8469 22.0492 19.8469 22.8046 20.109C23.7673 20.4703 24.7905 20.643 25.8185 20.6177C26.0199 20.6271 26.2106 20.7113 26.3532 20.8539C26.4958 20.9965 26.58 21.1871 26.5894 21.3885V25.9056C26.58 26.107 26.4958 26.2977 26.3532 26.4403C26.2106 26.5829 26.0199 26.6671 25.8185 26.6765C21.2842 26.4789 16.9861 24.5992 13.7627 21.404C10.5625 18.184 8.68185 13.8838 8.4902 9.34813C8.49203 9.13595 8.57557 8.93265 8.72343 8.78047C8.8713 8.6283 9.07212 8.53897 9.28416 8.53104Z" stroke="currentColor" stroke-width="0.5" stroke-linecap="round" stroke-linejoin="round"/>
</svg>
