<svg width="68" height="73" viewBox="0 0 68 73" fill="none" xmlns="http://www.w3.org/2000/svg">
<g id="Group">
<path id="Vector" d="M14.8989 11.6759L14.8387 18.7233C14.8086 22.5029 13.89 26.2223 12.1733 29.5804L6.34573 41.0097C4.37308 44.8797 4.74954 49.5177 7.32452 53.0112C10.803 57.7546 16.0584 60.8717 21.9011 61.6698L24.1447 61.971C31.8245 63.0251 39.6398 61.6849 46.5366 58.1612L49.8344 56.4746C53.6592 54.517 57.0775 51.8668 59.9235 48.6593L67.031 40.6332L51.2499 34.5044C44.6995 31.9596 37.4865 31.6283 30.7253 33.5859L22.3679 35.9952L23.8436 19.8827C24.0695 17.4282 24.1749 14.9737 24.1749 12.5192V7.17347C24.1749 4.32743 22.0667 1.90303 19.2357 1.52657L15.8325 1.05975C14.2213 0.833875 12.5799 1.25551 11.2698 2.20419L1 9.64304L17.1125 11.9921C18.6033 12.203 20.1091 11.7663 21.2385 10.8326" stroke="#BC402A" stroke-miterlimit="10" stroke-linecap="round" stroke-linejoin="round"/>
<path id="Vector_2" d="M24.2812 48.9601C35.0932 51.7911 46.5677 50.6466 56.5966 45.7225L67.017 40.6328" stroke="#BC402A" stroke-miterlimit="10" stroke-linecap="round" stroke-linejoin="round"/>
<path id="Vector_3" d="M34.4457 61.9561L34.0994 66.8651L33.5422 68.0397C32.6839 69.8617 31.0576 71.232 29.1 71.7591C27.9556 72.0753 26.7509 72.0753 25.5914 71.7892L22.4743 71.0062C22.143 70.8857 22.2936 70.4189 22.7002 70.2834L27.8953 68.8679C29.5367 68.4161 30.7414 67.0157 30.9522 65.3291L31.3136 62.3024" stroke="#BC402A" stroke-miterlimit="10" stroke-linecap="round" stroke-linejoin="round"/>
<path id="Vector_4" d="M26.2249 62.1968L25.4268 65.1934L25.2913 65.4042C23.7553 67.7383 21.3459 69.3796 18.5903 69.9368C17.6265 70.1325 16.6327 70.0121 15.7442 69.5904L14.0276 68.7773C13.5457 68.5514 13.6361 67.8437 14.148 67.7383L19.7648 66.5336C20.9394 66.2776 21.8881 65.4042 22.2193 64.2447L22.897 61.8203" stroke="#BC402A" stroke-miterlimit="10" stroke-linecap="round" stroke-linejoin="round"/>
<path id="Vector_5" d="M11.7533 1.87305L10.2324 5.20095C9.76558 6.23998 9.70534 7.41454 10.0818 8.48368L11.0455 11.1038" stroke="#BC402A" stroke-miterlimit="10" stroke-linecap="round" stroke-linejoin="round"/>
<path id="Vector_6" d="M13.5586 4.97456C13.5586 4.22164 14.176 3.60425 14.9289 3.60425C15.6818 3.60425 16.2992 4.22164 16.2992 4.97456" stroke="#BC402A" stroke-miterlimit="10" stroke-linecap="round" stroke-linejoin="round"/>
<path id="Vector_7" d="M22.3516 35.9941V40.6171" stroke="#BC402A" stroke-miterlimit="10" stroke-linecap="round" stroke-linejoin="round"/>
</g>
</svg>
