<svg width="73" height="78" viewBox="0 0 73 78" fill="none" xmlns="http://www.w3.org/2000/svg">
<g id="Group">
<path id="Vector" d="M51.7461 34.874V11.1622C51.7461 5.55606 56.3022 1 61.9083 1V24.7118C61.9083 30.318 57.3522 34.874 51.7461 34.874Z" stroke="#BC402A" stroke-miterlimit="10" stroke-linecap="round" stroke-linejoin="round"/>
<path id="Vector_2" d="M41.582 45.46V21.7482C41.582 16.142 46.1381 11.5859 51.7442 11.5859V35.2978C51.7442 40.9039 47.1882 45.46 41.582 45.46Z" stroke="#BC402A" stroke-miterlimit="10" stroke-linecap="round" stroke-linejoin="round"/>
<path id="Vector_3" d="M31.4219 56.0449V32.3331C31.4219 26.727 35.9779 22.1709 41.5841 22.1709V45.8827C41.5841 51.4889 37.028 56.0449 31.4219 56.0449Z" stroke="#BC402A" stroke-miterlimit="10" stroke-linecap="round" stroke-linejoin="round"/>
<path id="Vector_4" d="M21.2578 66.6309V42.9191C21.2578 37.3129 25.8139 32.7568 31.42 32.7568V56.4687C31.42 62.0748 26.864 66.6309 21.2578 66.6309Z" stroke="#BC402A" stroke-miterlimit="10" stroke-linecap="round" stroke-linejoin="round"/>
<path id="Vector_5" d="M11.0977 77.2168V53.505C11.0977 47.8988 15.6537 43.3428 21.2599 43.3428V67.0546C21.2599 72.6608 16.7038 77.2168 11.0977 77.2168Z" stroke="#BC402A" stroke-miterlimit="10" stroke-linecap="round" stroke-linejoin="round"/>
<path id="Vector_6" d="M11.0945 56.4688C5.5222 56.5026 1 61.0417 1 66.631H11.0945V56.4688Z" stroke="#BC402A" stroke-miterlimit="10" stroke-linecap="round" stroke-linejoin="round"/>
<path id="Vector_7" d="M61.9062 21.7482C67.4785 21.7143 72.0007 17.1752 72.0007 11.5859H61.9062V21.7482Z" stroke="#BC402A" stroke-miterlimit="10" stroke-linecap="round" stroke-linejoin="round"/>
</g>
</svg>
