<svg width="77" height="76" viewBox="0 0 77 76" fill="none" xmlns="http://www.w3.org/2000/svg">
<g id="Group">
<path id="Vector" d="M38.0624 58.5144C49.5157 58.5144 58.8005 49.2296 58.8005 37.7762C58.8005 26.3229 49.5157 17.0381 38.0624 17.0381C26.609 17.0381 17.3242 26.3229 17.3242 37.7762C17.3242 49.2296 26.609 58.5144 38.0624 58.5144Z" stroke="#BC402A" stroke-miterlimit="10" stroke-linecap="round" stroke-linejoin="round"/>
<g id="Group_2">
<path id="Vector_2" d="M42.5049 1.65905C44.7778 1.65905 47.0506 3.16879 47.3991 5.9394C48.4277 4.7117 49.7715 4.18081 51.0821 4.18081C53.8528 4.18081 56.5073 6.53666 55.9764 9.87136C56.8557 9.29069 57.7847 9.02524 58.6806 9.02524C61.9655 9.02524 64.7859 12.5258 63.1103 16.0596C63.6246 15.8937 64.1389 15.8273 64.62 15.8273C68.5686 15.8273 71.1567 20.705 68.2036 24.0065C68.2367 24.0065 68.2534 24.0065 68.2865 24.0065C73.1973 24.0065 75.0555 30.4602 70.8747 33.0649C75.6527 34.3921 75.6527 41.1776 70.8747 42.5049C75.0555 45.1096 73.1973 51.5633 68.2865 51.5633C68.2534 51.5633 68.2367 51.5633 68.2036 51.5633C71.1401 54.8648 68.5686 59.7424 64.62 59.7424C64.1389 59.7424 63.6246 59.6761 63.1103 59.5102C64.7859 63.0439 61.9655 66.5445 58.6806 66.5445C57.7847 66.5445 56.8557 66.2791 55.9764 65.6984C56.5073 69.0165 53.8362 71.389 51.0821 71.389C49.7715 71.389 48.4277 70.8581 47.3991 69.6304C47.0341 72.3844 44.7778 73.9107 42.5049 73.9107C40.7131 73.9107 38.9379 72.9817 38.0586 70.9742C37.1793 72.9651 35.3875 73.9107 33.6123 73.9107C31.3394 73.9107 29.0666 72.401 28.7182 69.6304C27.6896 70.8581 26.3457 71.389 25.0351 71.389C22.2645 71.389 19.61 69.0331 20.1409 65.6984C19.2616 66.2791 18.3325 66.5445 17.4366 66.5445C14.1517 66.5445 11.3313 63.0439 13.007 59.5102C12.4926 59.6761 11.9783 59.7424 11.4972 59.7424C7.54867 59.7424 4.96054 54.8648 7.91366 51.5633C7.88047 51.5633 7.8639 51.5633 7.83072 51.5633C2.91993 51.5633 1.0618 45.1096 5.24261 42.5049C0.46454 41.1776 0.46454 34.3921 5.24261 33.0649C1.0618 30.4602 2.91993 24.0065 7.83072 24.0065C7.8639 24.0065 7.88047 24.0065 7.91366 24.0065C4.97714 20.705 7.54867 15.8273 11.4972 15.8273C11.9783 15.8273 12.4926 15.8937 13.007 16.0596C11.3313 12.5258 14.1517 9.02524 17.4366 9.02524C18.3325 9.02524 19.2616 9.29069 20.1409 9.87136C19.61 6.55325 22.281 4.18081 25.0351 4.18081C26.3457 4.18081 27.6896 4.7117 28.7182 5.9394C29.0832 3.18538 31.3394 1.65905 33.6123 1.65905C35.4041 1.65905 37.1793 2.58812 38.0586 4.59557C38.9379 2.58812 40.7297 1.65905 42.5049 1.65905ZM42.5049 0C40.7961 0 39.2366 0.630439 38.0586 1.75859C36.8807 0.647029 35.3212 0 33.6123 0C31.4722 0 29.1495 1.09497 27.9218 3.20197C27.0425 2.75403 26.0637 2.50517 25.0351 2.50517C23.094 2.50517 21.1861 3.38446 19.9418 4.86102C19.2782 5.62418 18.8302 6.52007 18.5979 7.46573C18.2164 7.39937 17.8182 7.3496 17.4366 7.3496C15.2135 7.3496 13.0733 8.54412 11.8456 10.4686C11.1322 11.6134 10.7838 12.8908 10.8502 14.1683C8.56067 14.4006 6.53667 15.8771 5.55783 18.0671C4.86103 19.61 4.81123 21.269 5.32554 22.7954C3.50058 23.5253 2.10697 25.0517 1.5263 27.0757C0.962221 29.0666 1.31064 31.0574 2.4222 32.6335C0.895873 33.828 0 35.6696 0 37.76C0 39.8504 0.895873 41.692 2.4222 42.8865C1.31064 44.4626 0.962221 46.4534 1.5263 48.4443C2.10697 50.4683 3.50058 51.9947 5.32554 52.7246C4.81123 54.251 4.87762 55.91 5.55783 57.4529C6.53667 59.6429 8.57726 61.1194 10.8502 61.3517C10.8004 62.6458 11.1322 63.9066 11.8456 65.0514C13.0733 66.9759 15.1969 68.1704 17.4366 68.1704C17.8348 68.1704 18.2164 68.1372 18.5979 68.0543C18.8302 68.9999 19.2782 69.8958 19.9418 70.659C21.2027 72.1355 23.1106 73.0148 25.0351 73.0148C26.0637 73.0148 27.0425 72.7826 27.9218 72.318C29.1661 74.425 31.4722 75.52 33.6123 75.52C35.3212 75.52 36.8807 74.8896 38.0586 73.7614C39.2366 74.873 40.7961 75.52 42.5049 75.52C44.6451 75.52 46.9677 74.425 48.1954 72.318C49.0747 72.766 50.0535 73.0148 51.0821 73.0148C53.0232 73.0148 54.9312 72.1355 56.1754 70.659C56.8391 69.8958 57.287 68.9999 57.5193 68.0543C57.9009 68.1206 58.299 68.1704 58.6806 68.1704C60.9038 68.1704 63.0439 66.9759 64.2716 65.0514C64.985 63.9066 65.3334 62.6292 65.2671 61.3517C67.5566 61.1194 69.5806 59.6429 70.5594 57.4529C71.2562 55.91 71.306 54.251 70.7917 52.7246C72.6166 51.9947 74.0103 50.4683 74.5909 48.4443C75.155 46.4534 74.8066 44.4626 73.695 42.8865C75.2213 41.692 76.1173 39.8504 76.1173 37.76C76.1173 35.6696 75.2213 33.828 73.695 32.6335C74.8066 31.0574 75.155 29.0666 74.5909 27.0757C74.0103 25.0517 72.6166 23.5253 70.7917 22.7954C71.306 21.269 71.2396 19.61 70.5594 18.0671C69.5806 15.8771 67.54 14.4006 65.2671 14.1683C65.3168 12.8742 64.985 11.6134 64.2716 10.4686C63.0439 8.54412 60.9203 7.3496 58.6806 7.3496C58.2825 7.3496 57.9009 7.38278 57.5193 7.46573C57.287 6.52007 56.8391 5.62418 56.1754 4.86102C54.9146 3.38446 53.0066 2.50517 51.0821 2.50517C50.0535 2.50517 49.0747 2.73743 48.1954 3.20197C46.9677 1.09497 44.6616 0 42.5049 0Z" fill="#BC402A"/>
</g>
</g>
</svg>
