<svg width="188" height="71" viewBox="0 0 188 71" fill="none" xmlns="http://www.w3.org/2000/svg">
<path d="M60.75 1.75C63.8625 1.75 70.875 3.1375 70.875 11.125C70.875 19.1125 63.8625 20.5 60.75 20.5V28H58.5V1.75H60.75ZM60.75 20.125C63.3 20.125 68.25 18.8875 68.25 11.125C68.25 3.3625 63.3 2.125 60.75 2.125V20.125ZM74.9956 11.5V27.625H79.4956V28H72.7456V1.75H79.4956V2.125H74.9956V11.125H77.2456V11.5H74.9956ZM90.3779 28.375C87.2654 28.375 80.2529 26.9875 80.2529 19H82.8779C82.8779 26.7625 87.8279 28 90.3779 28C92.9279 28 97.8779 26.7625 97.8779 19C97.8779 11.2375 92.9279 9.55 90.3779 9.55V8.9125C92.9279 8.9125 94.1279 7.4875 94.1279 5.125C94.1279 2.7625 92.9279 1.75 90.3779 1.75C87.8279 1.75 86.6279 2.7625 86.6279 5.125H84.3779C84.3779 2.6875 87.2654 1.375 90.3779 1.375C93.4904 1.375 96.3779 2.6875 96.3779 5.125C96.3779 7.3 94.0154 8.95 91.7279 9.2125V9.2875C94.7654 9.55 100.503 11.7625 100.503 19C100.503 26.9875 93.4904 28.375 90.3779 28.375ZM105.391 1.75V19.4875H105.466L111.316 1.75V28H109.066V10.4125H108.991L103.141 28V1.75H105.391ZM124.884 28H113.559L115.059 32.875H112.809V27.625H113.484C118.359 27.625 118.359 20.275 118.359 2.125H117.009V1.75H123.759V27.625H125.634V32.875H123.384L124.884 28ZM121.509 2.125H118.734C118.734 18.4375 118.584 25.7875 115.322 27.55V27.625H121.509V2.125ZM130.513 11.5V27.625H135.013V28H128.263V1.75H135.013V2.125H130.513V11.125H132.763V11.5H130.513ZM139.156 11.125H144.031V1.75H146.281V28H144.031V11.5H139.156V28H136.906V1.75H139.156V11.125ZM152.266 27.625H156.766V1.75H159.016V27.625H160.591V33.25H158.341L159.841 28H150.016V1.75H152.266V27.625ZM165.486 1.75V19.4875H165.561L171.411 1.75V28H169.161V10.4125H169.086L163.236 28V1.75H165.486ZM184.231 20.5C182.656 24.4375 178.343 28 174.406 28V25.75C177.481 25.7875 181.456 25.6375 183.818 20.4625C180.443 20.275 174.406 18.55 174.406 11.125C174.406 3.1375 181.418 1.75 184.531 1.75H186.781V28H184.531V20.5C184.418 20.5 184.343 20.5 184.231 20.5ZM184.531 20.125V2.125C181.981 2.125 177.031 3.3625 177.031 11.125C177.031 18.8875 181.981 20.125 184.531 20.125ZM63 39.125H58.5V38.75H69.75V39.125H65.25V65H63V39.125ZM73.8604 38.75C76.9729 38.75 83.9854 40.1375 83.9854 48.125C83.9854 56.1125 76.9729 57.5 73.8604 57.5V65H71.6104V38.75H73.8604ZM73.8604 57.125C76.4104 57.125 81.3604 55.8875 81.3604 48.125C81.3604 40.3625 76.4104 39.125 73.8604 39.125V57.125ZM90.1485 65L89.2485 57.5H86.4735L85.611 65H85.1235L87.5985 43.475L87.036 38.75H89.3235L92.4735 65H90.1485ZM86.511 57.125H89.211L87.936 46.2125H87.786L86.511 57.125ZM105.695 65H94.3696L95.8696 69.875H93.6196V64.625H94.2946C99.1696 64.625 99.1696 57.275 99.1696 39.125H97.8196V38.75H104.57V64.625H106.445V69.875H104.195L105.695 65ZM102.32 39.125H99.5446C99.5446 55.4375 99.3946 62.7875 96.1321 64.55V64.625H102.32V39.125ZM111.324 38.75V56.4875H111.399L117.249 38.75V65H114.999V47.4125H114.924L109.074 65V38.75H111.324ZM123.226 64.625H127.726V38.75H129.976V64.625H131.551V70.25H129.301L130.801 65H120.976V38.75H123.226V64.625ZM136.446 38.75V56.4875H136.521L142.371 38.75V65H140.121V47.4125H140.046L134.196 65V38.75H136.446ZM150.673 39.9125V35.4125H152.923L151.048 39.9125H150.673ZM148.348 38.75V56.4875H148.423L154.273 38.75V65H152.023V47.4125H151.948L146.098 65V38.75H148.348Z" fill="#1B1B1B"/>
<path d="M27.125 12.875C27.125 6.93794 31.9379 2.125 37.875 2.125C43.8121 2.125 48.625 6.93794 48.625 12.875V31.125H27.125V12.875Z" fill="#C5A767" stroke="#1B1B1B" stroke-width="0.25"/>
<path d="M0.125 36.625H21.625V64.875H0.125V36.625Z" fill="#1A4414" stroke="#1B1B1B" stroke-width="0.25"/>
<path d="M0.125 12.875C0.125 6.93794 4.93794 2.125 10.875 2.125C16.8121 2.125 21.625 6.93794 21.625 12.875V31.125H0.125V12.875Z" fill="#904D30" stroke="#1B1B1B" stroke-width="0.25"/>
<path d="M27.125 36.625H48.625V64.875H27.125V36.625Z" fill="#7D010C" stroke="#1B1B1B" stroke-width="0.25"/>
</svg>
