<svg width="189" height="71" viewBox="0 0 189 71" fill="none" xmlns="http://www.w3.org/2000/svg">
<path d="M61.6953 1.75C64.8078 1.75 71.8203 3.1375 71.8203 11.125C71.8203 19.1125 64.8078 20.5 61.6953 20.5V28H59.4453V1.75H61.6953ZM61.6953 20.125C64.2453 20.125 69.1953 18.8875 69.1953 11.125C69.1953 3.3625 64.2453 2.125 61.6953 2.125V20.125ZM75.9409 11.5V27.625H80.4409V28H73.6909V1.75H80.4409V2.125H75.9409V11.125H78.1909V11.5H75.9409ZM91.3232 28.375C88.2107 28.375 81.1982 26.9875 81.1982 19H83.8232C83.8232 26.7625 88.7732 28 91.3232 28C93.8732 28 98.8232 26.7625 98.8232 19C98.8232 11.2375 93.8732 9.55 91.3232 9.55V8.9125C93.8732 8.9125 95.0732 7.4875 95.0732 5.125C95.0732 2.7625 93.8732 1.75 91.3232 1.75C88.7732 1.75 87.5732 2.7625 87.5732 5.125H85.3232C85.3232 2.6875 88.2107 1.375 91.3232 1.375C94.4357 1.375 97.3232 2.6875 97.3232 5.125C97.3232 7.3 94.9607 8.95 92.6732 9.2125V9.2875C95.7107 9.55 101.448 11.7625 101.448 19C101.448 26.9875 94.4357 28.375 91.3232 28.375ZM106.336 1.75V19.4875H106.411L112.261 1.75V28H110.011V10.4125H109.936L104.086 28V1.75H106.336ZM125.829 28H114.504L116.004 32.875H113.754V27.625H114.429C119.304 27.625 119.304 20.275 119.304 2.125H117.954V1.75H124.704V27.625H126.579V32.875H124.329L125.829 28ZM122.454 2.125H119.679C119.679 18.4375 119.529 25.7875 116.267 27.55V27.625H122.454V2.125ZM131.458 11.5V27.625H135.958V28H129.208V1.75H135.958V2.125H131.458V11.125H133.708V11.5H131.458ZM140.101 11.125H144.976V1.75H147.226V28H144.976V11.5H140.101V28H137.851V1.75H140.101V11.125ZM153.211 27.625H157.711V1.75H159.961V27.625H161.536V33.25H159.286L160.786 28H150.961V1.75H153.211V27.625ZM166.432 1.75V19.4875H166.507L172.357 1.75V28H170.107V10.4125H170.032L164.182 28V1.75H166.432ZM185.176 20.5C183.601 24.4375 179.289 28 175.351 28V25.75C178.426 25.7875 182.401 25.6375 184.764 20.4625C181.389 20.275 175.351 18.55 175.351 11.125C175.351 3.1375 182.364 1.75 185.476 1.75H187.726V28H185.476V20.5C185.364 20.5 185.289 20.5 185.176 20.5ZM185.476 20.125V2.125C182.926 2.125 177.976 3.3625 177.976 11.125C177.976 18.8875 182.926 20.125 185.476 20.125ZM63.9453 39.125H59.4453V38.75H70.6953V39.125H66.1953V65H63.9453V39.125ZM74.8057 38.75C77.9182 38.75 84.9307 40.1375 84.9307 48.125C84.9307 56.1125 77.9182 57.5 74.8057 57.5V65H72.5557V38.75H74.8057ZM74.8057 57.125C77.3557 57.125 82.3057 55.8875 82.3057 48.125C82.3057 40.3625 77.3557 39.125 74.8057 39.125V57.125ZM91.0938 65L90.1938 57.5H87.4188L86.5563 65H86.0688L88.5438 43.475L87.9813 38.75H90.2688L93.4188 65H91.0938ZM87.4563 57.125H90.1563L88.8813 46.2125H88.7313L87.4563 57.125ZM106.64 65H95.3149L96.8149 69.875H94.5649V64.625H95.2399C100.115 64.625 100.115 57.275 100.115 39.125H98.7649V38.75H105.515V64.625H107.39V69.875H105.14L106.64 65ZM103.265 39.125H100.49C100.49 55.4375 100.34 62.7875 97.0774 64.55V64.625H103.265V39.125ZM112.269 38.75V56.4875H112.344L118.194 38.75V65H115.944V47.4125H115.869L110.019 65V38.75H112.269ZM124.171 64.625H128.671V38.75H130.921V64.625H132.496V70.25H130.246L131.746 65H121.921V38.75H124.171V64.625ZM137.391 38.75V56.4875H137.466L143.316 38.75V65H141.066V47.4125H140.991L135.141 65V38.75H137.391ZM151.618 39.9125V35.4125H153.868L151.993 39.9125H151.618ZM149.293 38.75V56.4875H149.368L155.218 38.75V65H152.968V47.4125H152.893L147.043 65V38.75H149.293Z" fill="white"/>
<path d="M28.0703 12.875C28.0703 6.93794 32.8833 2.125 38.8203 2.125C44.7574 2.125 49.5703 6.93794 49.5703 12.875V31.125H28.0703V12.875Z" stroke="white" stroke-width="0.25"/>
<path d="M1.07031 36.625H22.5703V64.875H1.07031V36.625Z" stroke="white" stroke-width="0.25"/>
<path d="M1.07031 12.875C1.07031 6.93794 5.88325 2.125 11.8203 2.125C17.7574 2.125 22.5703 6.93794 22.5703 12.875V31.125H1.07031V12.875Z" stroke="white" stroke-width="0.25"/>
<path d="M28.0703 36.625H49.5703V64.875H28.0703V36.625Z" stroke="white" stroke-width="0.25"/>
</svg>
