<svg width="58" height="19" viewBox="0 0 58 19" fill="none" xmlns="http://www.w3.org/2000/svg">
<g id="Mir-logo.SVG 1" clip-path="url(#clip0_1645_276)">
<path id="Vector" d="M0.510742 1.97894H5.59496C6.05716 1.97894 7.44377 1.82677 8.06003 3.95709C8.52223 5.32657 9.1385 7.45688 10.0629 10.6524H10.371C11.2954 7.30472 12.0658 5.02224 12.3739 3.95709C12.9902 1.82677 14.5309 1.97894 15.1471 1.97894H19.9232V16.5868H14.9931V7.91338H14.6849L12.0658 16.5868H8.36817L5.74903 7.91338H5.28682V16.5868H0.510742M21.9261 1.97894H26.8562V10.6524H27.3184L30.5538 3.50059C31.1701 2.13111 32.5567 1.97894 32.5567 1.97894H37.1787V16.5868H32.2486V7.91338H31.9404L28.705 15.0651C28.0888 16.4346 26.5481 16.5868 26.5481 16.5868H21.9261M43.8036 12.174V16.5868H39.1816V8.97854H54.2802C53.6639 10.8045 51.507 12.174 49.0419 12.174" fill="#BC402A"/>
<path id="Vector_2" d="M54.5884 8.06463C55.2047 5.32566 53.3558 1.97803 49.3501 1.97803H38.8735C39.1817 5.17349 41.9549 8.06463 44.8822 8.06463" fill="#BC402A"/>
</g>
<defs>
<clipPath id="clip0_1645_276">
<rect width="57.0619" height="18.2598" fill="white" transform="translate(0.297852)"/>
</clipPath>
</defs>
</svg>
