<svg width="50" height="17" viewBox="0 0 50 17" fill="none" xmlns="http://www.w3.org/2000/svg">
<path id="Vector" d="M18.6335 0.423967L12.209 15.8757H8.01734L4.85825 3.54441C4.664 2.78388 4.49838 2.5077 3.91359 2.18411C2.95871 1.66473 1.38632 1.17625 0 0.871217L0.0961018 0.421907H6.84163C7.70246 0.421907 8.47536 1.00106 8.66961 1.99656L10.3401 10.9395L14.4664 0.421907L18.6335 0.423967ZM35.0547 10.8282C35.0731 6.75348 29.4603 6.53089 29.5012 4.70685C29.5114 4.15036 30.0349 3.5609 31.182 3.41251C31.7504 3.33625 33.3166 3.2806 35.0935 4.1009L35.7887 0.825875C34.8338 0.475495 33.6049 0.141602 32.0796 0.141602C28.1599 0.141602 25.4015 2.24182 25.379 5.24891C25.3525 7.47279 27.3481 8.71355 28.851 9.45347C30.3947 10.2119 30.9121 10.6942 30.9059 11.3744C30.8957 12.4111 29.673 12.8645 28.534 12.8851C26.5404 12.9161 25.3831 12.341 24.4589 11.9082L23.7412 15.2966C24.6654 15.7253 26.3789 16.0963 28.1517 16.1189C32.3168 16.1189 35.0424 14.0393 35.0547 10.8282ZM45.405 15.8737H49.0732L45.8733 0.421907H42.4872C41.7266 0.421907 41.0845 0.869157 40.7983 1.55549L34.8522 15.8737H39.0153L39.8413 13.5653H44.9286L45.405 15.8737ZM40.9802 10.3995L43.0679 4.59761L44.2682 10.3995H40.9802ZM24.2994 0.423967L21.0177 15.8757H17.053L20.3347 0.423967H24.2994Z" fill="#BC402A"/>
</svg>
