<svg width="28" height="22" viewBox="0 0 28 22" fill="none" xmlns="http://www.w3.org/2000/svg">
<path fill-rule="evenodd" clip-rule="evenodd" d="M8.34466 19.0927V20.2075V21.3224H7.85602V21.0517C7.70104 21.2525 7.46589 21.3785 7.14628 21.3785C6.5161 21.3785 6.0221 20.8889 6.0221 20.2075C6.0221 19.5268 6.5161 19.0366 7.14628 19.0366C7.46589 19.0366 7.70104 19.1626 7.85602 19.3634V19.0927H8.34466ZM7.20704 19.4937C6.78408 19.4937 6.52523 19.8157 6.52523 20.2075C6.52523 20.5995 6.78408 20.9214 7.20704 20.9214C7.61121 20.9214 7.88403 20.6134 7.88403 20.2075C7.88403 19.8018 7.61121 19.4937 7.20704 19.4937ZM24.857 20.2075C24.857 19.8157 25.1158 19.4937 25.5388 19.4937C25.9435 19.4937 26.2158 19.8018 26.2158 20.2075C26.2158 20.6134 25.9435 20.9214 25.5388 20.9214C25.1158 20.9214 24.857 20.5995 24.857 20.2075ZM26.677 18.1973V20.2075V21.3224H26.1878V21.0517C26.0328 21.2525 25.7976 21.3785 25.478 21.3785C24.8478 21.3785 24.3538 20.8889 24.3538 20.2075C24.3538 19.5268 24.8478 19.0366 25.478 19.0366C25.7976 19.0366 26.0328 19.1626 26.1878 19.3634V18.1973H26.677ZM14.4101 19.4708C14.7249 19.4708 14.9272 19.6667 14.9789 20.0116H13.8128C13.8649 19.6897 14.0619 19.4708 14.4101 19.4708ZM13.3004 20.2075C13.3004 19.5124 13.761 19.0366 14.4198 19.0366C15.0494 19.0366 15.482 19.5124 15.4869 20.2075C15.4869 20.2727 15.482 20.3336 15.4772 20.3939H13.8085C13.879 20.7954 14.1657 20.9401 14.4805 20.9401C14.706 20.9401 14.9461 20.8558 15.1344 20.7068L15.3739 21.0661C15.101 21.2946 14.7911 21.3785 14.4526 21.3785C13.7799 21.3785 13.3004 20.9167 13.3004 20.2075ZM20.32 20.2075C20.32 19.8157 20.5788 19.4937 21.0018 19.4937C21.4059 19.4937 21.6788 19.8018 21.6788 20.2075C21.6788 20.6134 21.4059 20.9214 21.0018 20.9214C20.5788 20.9214 20.32 20.5995 20.32 20.2075ZM22.1394 19.0927V20.2075V21.3224H21.6507V21.0517C21.4952 21.2525 21.2606 21.3785 20.9409 21.3785C20.3107 21.3785 19.8167 20.8889 19.8167 20.2075C19.8167 19.5268 20.3107 19.0366 20.9409 19.0366C21.2606 19.0366 21.4952 19.1626 21.6507 19.3634V19.0927H22.1394ZM17.5603 20.2075C17.5603 20.8841 18.035 21.3785 18.7593 21.3785C19.0978 21.3785 19.3233 21.3038 19.5676 21.1126L19.3329 20.7207C19.1495 20.8515 18.9568 20.9214 18.7448 20.9214C18.3546 20.9167 18.0678 20.6368 18.0678 20.2075C18.0678 19.7783 18.3546 19.4985 18.7448 19.4937C18.9568 19.4937 19.1495 19.5636 19.3329 19.6944L19.5676 19.3025C19.3233 19.1114 19.0978 19.0366 18.7593 19.0366C18.035 19.0366 17.5603 19.5311 17.5603 20.2075ZM23.2679 19.3634C23.3948 19.1674 23.5784 19.0366 23.8604 19.0366C23.9593 19.0366 24.1004 19.0553 24.2085 19.0975L24.0579 19.5546C23.9545 19.5124 23.8512 19.4985 23.7522 19.4985C23.4325 19.4985 23.2727 19.7035 23.2727 20.0725V21.3224H22.7835V19.0927H23.2679V19.3634ZM10.7615 19.27C10.5263 19.1162 10.2024 19.0366 9.845 19.0366C9.27566 19.0366 8.90916 19.3073 8.90916 19.7505C8.90916 20.1141 9.18205 20.3384 9.68466 20.4083L9.9155 20.4409C10.1835 20.4783 10.31 20.5482 10.31 20.6742C10.31 20.8467 10.1313 20.9449 9.79766 20.9449C9.45917 20.9449 9.21489 20.8376 9.05018 20.7116L8.81986 21.0891C9.08785 21.2851 9.42634 21.3785 9.79283 21.3785C10.4418 21.3785 10.818 21.0752 10.818 20.6507C10.818 20.2588 10.522 20.0538 10.0328 19.9839L9.8025 19.9507C9.59105 19.9229 9.4215 19.8813 9.4215 19.7318C9.4215 19.5684 9.58131 19.4708 9.8493 19.4708C10.1362 19.4708 10.4138 19.578 10.55 19.6619L10.7615 19.27ZM16.4744 19.3634C16.6009 19.1674 16.7844 19.0366 17.0663 19.0366C17.1654 19.0366 17.3064 19.0553 17.4145 19.0975L17.2638 19.5546C17.1605 19.5124 17.0572 19.4985 16.9581 19.4985C16.6385 19.4985 16.4787 19.7035 16.4787 20.0725V21.3224H15.9901V19.0927H16.4744V19.3634ZM12.8962 19.0927H12.0971V18.4162H11.6031V19.0927H11.1473V19.5358H11.6031V20.553C11.6031 21.0704 11.8054 21.3785 12.3835 21.3785C12.5954 21.3785 12.8398 21.3134 12.9948 21.206L12.8537 20.7906C12.7079 20.8745 12.5481 20.9167 12.4211 20.9167C12.1768 20.9167 12.0971 20.7671 12.0971 20.5434V19.5358H12.8962V19.0927ZM5.58993 19.9229V21.3224H5.09593V20.0815C5.09593 19.7035 4.93612 19.4937 4.60246 19.4937C4.27793 19.4937 4.05245 19.6993 4.05245 20.0864V21.3224H3.55845V20.0815C3.55845 19.7035 3.39434 19.4937 3.06981 19.4937C2.73562 19.4937 2.51935 19.6993 2.51935 20.0864V21.3224H2.02588V19.0927H2.51505V19.3676C2.69856 19.1066 2.93318 19.0366 3.17316 19.0366C3.51648 19.0366 3.76084 19.1862 3.91581 19.4333C4.12295 19.1205 4.41894 19.0318 4.7058 19.0366C5.25143 19.0415 5.58993 19.396 5.58993 19.9229Z" fill="#BC402A"/>
<path d="M18.0055 15.305H10.5996V2.09961H18.0055V15.305Z" fill="#BC402A" fill-opacity="0.52"/>
<path d="M11.0708 8.70304C11.0708 6.02425 12.3349 3.63806 14.3034 2.10033C12.8639 0.97585 11.0471 0.304688 9.07271 0.304688C4.39845 0.304688 0.609375 4.06472 0.609375 8.70304C0.609375 13.3414 4.39845 17.1014 9.07271 17.1014C11.0471 17.1014 12.8639 16.4302 14.3034 15.3057C12.3349 13.768 11.0708 11.3818 11.0708 8.70304Z" fill="#BC402A"/>
<path d="M28.0003 8.70304C28.0003 13.3414 24.2112 17.1014 19.537 17.1014C17.5625 17.1014 15.7458 16.4302 14.3057 15.3057C16.2747 13.768 17.5388 11.3818 17.5388 8.70304C17.5388 6.02425 16.2747 3.63806 14.3057 2.10033C15.7458 0.97585 17.5625 0.304688 19.537 0.304688C24.2112 0.304688 28.0003 4.06472 28.0003 8.70304Z" fill="#BC402A"/>
</svg>
