<svg width="0" height="0" class="hidden">
  <symbol fill="none" xmlns="http://www.w3.org/2000/svg" viewBox="0 0 13 25" id="ic_arr_hor">
    <path d="M12 24L1.91421 13.9142C1.13317 13.1332 1.13316 11.8668 1.91421 11.0858L12 1" stroke="currentColor"></path>
  </symbol>
  <symbol fill="none" xmlns="http://www.w3.org/2000/svg" viewBox="0 0 16 9" id="ic_arr_ver">
    <path d="M8.10202 7.2773L14.809 0.579298C14.8741 0.513846 14.9517 0.462126 15.0372 0.427202C15.1226 0.392278 15.2142 0.374859 15.3066 0.375978C15.3989 0.377097 15.49 0.396731 15.5746 0.433716C15.6592 0.470702 15.7355 0.524287 15.799 0.591298C15.9291 0.728363 16.0007 0.910761 15.9984 1.09973C15.9962 1.28871 15.9203 1.46936 15.787 1.6033L8.58402 8.7963C8.51939 8.86137 8.44244 8.9129 8.35766 8.94789C8.27288 8.98287 8.18198 9.0006 8.09027 9.00004C7.99855 8.99948 7.90787 8.98064 7.82353 8.94463C7.73918 8.90862 7.66286 8.85615 7.59902 8.7903L0.204024 1.2193C0.0731467 1.08376 0 0.902709 0 0.714298C0 0.525886 0.0731467 0.344834 0.204024 0.209298C0.268336 0.143073 0.345284 0.0904257 0.430309 0.0544748C0.515335 0.018524 0.60671 0 0.699024 0C0.791338 0 0.882713 0.018524 0.967739 0.0544748C1.05276 0.0904257 1.12971 0.143073 1.19402 0.209298L8.10202 7.2773Z" fill="currentColor"></path>
  </symbol>
  <symbol fill="none" xmlns="http://www.w3.org/2000/svg" viewBox="0 0 37 35" id="ic_close">
    <path d="M2.92182 1.11505L35.807 33.9996" stroke="currentColor" stroke-width="2"></path>
    <path d="M1 33.8936L33.8938 1.00019" stroke="currentColor" stroke-width="2"></path>
  </symbol>
  <symbol fill="none" xmlns="http://www.w3.org/2000/svg" viewBox="0 0 29 31" id="ic_home">
    <path d="M2.07227 15.5206L14.5008 2.57422L26.9294 15.5206" stroke="currentColor" stroke-linecap="round" stroke-linejoin="round"></path>
    <path d="M4.83423 12.6436V24.1515C4.83423 24.533 4.97972 24.8989 5.2387 25.1687C5.49768 25.4384 5.84893 25.59 6.21518 25.59H10.358C10.7243 25.59 11.0755 25.4384 11.3345 25.1687C11.5935 24.8989 11.739 24.533 11.739 24.1515V18.3975C11.739 18.016 11.8845 17.6501 12.1435 17.3804C12.4024 17.1106 12.7537 16.959 13.1199 16.959H15.8818C16.2481 16.959 16.5994 17.1106 16.8583 17.3804C17.1173 17.6501 17.2628 18.016 17.2628 18.3975V24.1515C17.2628 24.533 17.4083 24.8989 17.6673 25.1687C17.9263 25.4384 18.2775 25.59 18.6438 25.59H22.7866C23.1529 25.59 23.5041 25.4384 23.7631 25.1687C24.0221 24.8989 24.1676 24.533 24.1676 24.1515V12.6436" stroke="currentColor" stroke-linecap="round" stroke-linejoin="round"></path>
  </symbol>
  <symbol fill="none" xmlns="http://www.w3.org/2000/svg" viewBox="0 0 33 35" id="ic_phone">
    <path d="M24.3477 19.9666L27.9887 23.7593C28.1055 23.8804 28.1982 24.0243 28.2614 24.1829C28.3247 24.3414 28.3573 24.5114 28.3573 24.6831C28.3573 24.8548 28.3247 25.0248 28.2614 25.1833C28.1982 25.3419 28.1055 25.4858 27.9887 25.6069C26.7083 26.9409 25.009 27.7489 23.2027 27.8825C21.3964 28.0162 19.6045 27.4666 18.156 26.3345L15.9904 24.6416C13.5931 22.7686 11.4634 20.5503 9.6654 18.053L8.04015 15.7972C6.95342 14.2883 6.42576 12.4217 6.55407 10.5402C6.68239 8.65866 7.45807 6.88851 8.73865 5.55485C8.85492 5.43316 8.99312 5.3366 9.14532 5.27071C9.29752 5.20482 9.46071 5.1709 9.62553 5.1709C9.79035 5.1709 9.95354 5.20482 10.1057 5.27071C10.2579 5.3366 10.3961 5.43316 10.5124 5.55485L14.1534 9.34756C14.4112 9.61615 14.556 9.9804 14.556 10.3602C14.556 10.74 14.4112 11.1042 14.1534 11.3728L12.7495 12.8352C12.64 12.9482 12.5676 13.0945 12.5429 13.253C12.5182 13.4116 12.5424 13.5742 12.612 13.7175C14.2434 17.1167 16.8893 19.8729 20.1525 21.5722C20.2901 21.6447 20.4462 21.6699 20.5984 21.6442C20.7506 21.6184 20.8911 21.5431 20.9995 21.4289L22.402 19.968C22.5297 19.8348 22.6814 19.7292 22.8483 19.6571C23.0152 19.585 23.1941 19.5479 23.3748 19.5479C23.5555 19.5479 23.7345 19.585 23.9014 19.6571C24.0683 19.7292 24.22 19.8348 24.3477 19.968V19.9666Z" stroke="currentColor"></path>
  </symbol>
  <symbol fill="none" xmlns="http://www.w3.org/2000/svg" viewBox="0 0 43 44" id="ic_email">
    <path d="M34.701 13.9551L21.5009 23.8991L8.30078 13.9551" stroke="currentColor" stroke-width="0.5" stroke-linecap="round" stroke-linejoin="round"></path>
    <path d="M35.3854 9.81641H7.61458C5.63556 9.81641 4.03125 11.458 4.03125 13.4831V30.5166C4.03125 32.5416 5.63556 34.1832 7.61458 34.1832H35.3854C37.3644 34.1832 38.9688 32.5416 38.9688 30.5166V13.4831C38.9688 11.458 37.3644 9.81641 35.3854 9.81641Z" stroke="currentColor" stroke-width="0.5" stroke-linecap="round" stroke-linejoin="round"></path>
  </symbol>
  <symbol fill="none" xmlns="http://www.w3.org/2000/svg" viewBox="0 0 36 33" id="ic_menu">
    <line y1="1" x2="35.8947" y2="1" stroke="currentColor" stroke-width="2"></line>
    <line y1="32" x2="35.8947" y2="32" stroke="currentColor" stroke-width="2"></line>
    <line y1="17.3157" x2="35.8947" y2="17.3157" stroke="currentColor" stroke-width="2"></line>
  </symbol>
  <symbol fill="none" xmlns="http://www.w3.org/2000/svg" viewBox="0 0 34 33" id="ic_search">
    <path d="M14.4453 26C21.3489 26 26.9453 20.4036 26.9453 13.5C26.9453 6.59644 21.3489 1 14.4453 1C7.54175 1 1.94531 6.59644 1.94531 13.5C1.94531 20.4036 7.54175 26 14.4453 26Z" stroke="currentColor" stroke-width="2"></path>
    <path d="M23.9453 23L32.9453 32" stroke="currentColor" stroke-width="2" stroke-linecap="round" stroke-linejoin="round"></path>
  </symbol>
  <symbol fill="none" xmlns="http://www.w3.org/2000/svg" viewBox="0 0 22 22" id="ic_time">
    <path d="M11 21C16.5228 21 21 16.5228 21 11C21 5.47715 16.5228 1 11 1C5.47715 1 1 5.47715 1 11C1 16.5228 5.47715 21 11 21Z" stroke="currentColor" stroke-width="0.958333"></path>
    <path d="M16.2941 10.999H11.2941C11.2161 10.999 11.1413 10.968 11.0861 10.9128C11.031 10.8577 11 10.7829 11 10.7049V6.88135" stroke="currentColor" stroke-width="0.958333" stroke-linecap="round"></path>
  </symbol>
  <symbol fill="none" xmlns="http://www.w3.org/2000/svg" viewBox="0 0 124 132" id="ic_video_play">
    <path d="M61.7188 0C49.512 0 37.5793 3.84263 27.4297 11.042C17.2801 18.2413 9.36943 28.474 4.69809 40.446C0.0267408 52.4181 -1.1955 65.5918 1.18594 78.3012C3.56737 91.0107 9.44551 102.685 18.077 111.848C26.7086 121.011 37.7058 127.251 49.678 129.779C61.6503 132.307 74.0599 131.01 85.3375 126.051C96.6152 121.092 106.254 112.694 113.036 101.92C119.818 91.145 123.438 78.4775 123.438 65.5191C123.42 48.1482 116.911 31.4942 105.341 19.2112C93.7701 6.92809 78.0821 0.0190765 61.7188 0ZM61.7188 125.797C50.4885 125.797 39.5104 122.261 30.1728 115.638C20.8352 109.015 13.5574 99.6006 9.25974 88.5863C4.9621 77.572 3.83765 65.4522 6.02856 53.7595C8.21948 42.0668 13.6274 31.3264 21.5684 22.8964C29.5094 14.4664 39.6268 8.72556 50.6413 6.39974C61.6558 4.07392 73.0726 5.26762 83.448 9.82988C93.8234 14.3921 102.691 22.1181 108.931 32.0307C115.17 41.9433 118.5 53.5973 118.5 65.5191C118.484 81.5004 112.496 96.8221 101.851 108.123C91.2061 119.423 76.7731 125.779 61.7188 125.797ZM90.1835 63.298L50.6835 37.0904C50.3099 36.8425 49.8806 36.7052 49.4401 36.6929C48.9997 36.6806 48.5642 36.7936 48.1788 37.0202C47.7934 37.2468 47.4721 37.5788 47.2484 37.9817C47.0246 38.3846 46.9065 38.8437 46.9063 39.3114V91.7267C46.9061 92.1946 47.0239 92.6541 47.2474 93.0573C47.471 93.4606 47.7922 93.7929 48.1777 94.0199C48.5448 94.2335 48.9564 94.3462 49.375 94.3475C49.8378 94.3471 50.2912 94.2086 50.6835 93.9478L90.1835 67.7402C90.538 67.5045 90.8303 67.177 91.0329 66.7885C91.2355 66.3999 91.3418 65.9632 91.3418 65.5191C91.3418 65.075 91.2355 64.6382 91.0329 64.2497C90.8303 63.8612 90.538 63.5337 90.1835 63.298ZM51.8438 86.9962V44.0419L84.2153 65.5191L51.8438 86.9962Z" fill="currentColor"></path>
  </symbol>
  <symbol fill="none" xmlns="http://www.w3.org/2000/svg" viewBox="0 0 34 33" id="ic_cart">
    <path d="M26.2812 25.625C27.1874 25.625 28.0564 25.985 28.6972 26.6257C29.3379 27.2665 29.6979 28.1355 29.6979 29.0417C29.6979 29.9478 29.3379 30.8169 28.6972 31.4576C28.0564 32.0984 27.1874 32.4583 26.2812 32.4583C25.3751 32.4583 24.5061 32.0984 23.8653 31.4576C23.2246 30.8169 22.8646 29.9478 22.8646 29.0417C22.8646 28.1355 23.2246 27.2665 23.8653 26.6257C24.5061 25.985 25.3751 25.625 26.2812 25.625ZM26.2812 27.3333C25.8282 27.3333 25.3937 27.5133 25.0733 27.8337C24.7529 28.1541 24.5729 28.5886 24.5729 29.0417C24.5729 29.4947 24.7529 29.9293 25.0733 30.2496C25.3937 30.57 25.8282 30.75 26.2812 30.75C26.7343 30.75 27.1688 30.57 27.4892 30.2496C27.8096 29.9293 27.9896 29.4947 27.9896 29.0417C27.9896 28.5886 27.8096 28.1541 27.4892 27.8337C27.1688 27.5133 26.7343 27.3333 26.2812 27.3333ZM10.9062 25.625C11.8124 25.625 12.6814 25.985 13.3222 26.6257C13.9629 27.2665 14.3229 28.1355 14.3229 29.0417C14.3229 29.9478 13.9629 30.8169 13.3222 31.4576C12.6814 32.0984 11.8124 32.4583 10.9062 32.4583C10.0001 32.4583 9.13105 32.0984 8.4903 31.4576C7.84955 30.8169 7.48958 29.9478 7.48958 29.0417C7.48958 28.1355 7.84955 27.2665 8.4903 26.6257C9.13105 25.985 10.0001 25.625 10.9062 25.625ZM10.9062 27.3333C10.4532 27.3333 10.0187 27.5133 9.69828 27.8337C9.3779 28.1541 9.19792 28.5886 9.19792 29.0417C9.19792 29.4947 9.3779 29.9293 9.69828 30.2496C10.0187 30.57 10.4532 30.75 10.9062 30.75C11.3593 30.75 11.7938 30.57 12.1142 30.2496C12.4346 29.9293 12.6146 29.4947 12.6146 29.0417C12.6146 28.5886 12.4346 28.1541 12.1142 27.8337C11.7938 27.5133 11.3593 27.3333 10.9062 27.3333ZM29.6979 5.125H6.2425L10.5988 15.375H24.5729C25.1367 15.375 25.6321 15.1017 25.9396 14.6917L31.0646 7.85833C31.2867 7.56792 31.4062 7.20917 31.4062 6.83333C31.4062 6.38025 31.2263 5.94573 30.9059 5.62536C30.5855 5.30499 30.151 5.125 29.6979 5.125ZM24.5729 17.0833H10.6842L9.36875 19.7483L9.19792 20.5C9.19792 20.9531 9.3779 21.3876 9.69828 21.708C10.0187 22.0283 10.4532 22.2083 10.9062 22.2083H29.6979V23.9167H10.9062C10.0001 23.9167 9.13105 23.5567 8.4903 22.9159C7.84955 22.2752 7.48958 21.4062 7.48958 20.5C7.48908 19.9204 7.63605 19.3501 7.91667 18.8429L9.14667 16.3317L2.94542 1.70833H0.65625V0H4.07292L5.525 3.41667H29.6979C30.6041 3.41667 31.4731 3.77664 32.1139 4.41738C32.7546 5.05813 33.1146 5.92718 33.1146 6.83333C33.1146 7.6875 32.8242 8.405 32.3458 8.98583L27.3746 15.6312C26.7596 16.5025 25.7346 17.0833 24.5729 17.0833Z" fill="currentColor"></path>
  </symbol>
  <symbol fill="none" xmlns="http://www.w3.org/2000/svg" viewBox="0 0 20 20" id="ic_peculiarities">
    <path d="M10 0.479167C12.5251 0.479167 14.9467 1.48225 16.7322 3.26775C18.5177 5.05326 19.5208 7.47492 19.5208 10C19.5208 12.5251 18.5177 14.9467 16.7322 16.7322C14.9467 18.5177 12.5251 19.5208 10 19.5208C7.47492 19.5208 5.05326 18.5177 3.26775 16.7322C1.48225 14.9467 0.479167 12.5251 0.479167 10C0.479167 7.47492 1.48225 5.05326 3.26775 3.26775C5.05326 1.48225 7.47492 0.479167 10 0.479167ZM10 0.573465C7.49993 0.573465 5.10225 1.56662 3.33443 3.33443C1.56662 5.10225 0.573465 7.49993 0.573465 10C0.573465 12.5001 1.56661 14.8977 3.33443 16.6656C5.10225 18.4334 7.49993 19.4265 10 19.4265C11.2379 19.4265 12.4637 19.1827 13.6074 18.709C14.7511 18.2353 15.7902 17.5409 16.6656 16.6656C17.5409 15.7902 18.2353 14.7511 18.709 13.6074C19.1827 12.4637 19.4265 11.2379 19.4265 10C19.4265 7.49993 18.4334 5.10225 16.6656 3.33443C14.8977 1.56661 12.5001 0.573465 10 0.573465ZM10.0471 6.88926H9.95285V5.74232H10.0471V6.88926ZM10.0471 14.2577H9.95285V9.95285H10.0471V14.2577Z" fill="currentColor" stroke="currentColor" stroke-width="0.958333"></path>
  </symbol>
  <symbol fill="none" xmlns="http://www.w3.org/2000/svg" viewBox="0 0 20 13" id="ic_description">
    <path d="M0.597537 0.588918C0.608809 0.577195 0.619179 0.575 0.625 0.575H19.375C19.3808 0.575 19.3912 0.577196 19.4025 0.588919C19.4145 0.601407 19.425 0.622989 19.425 0.65C19.425 0.677011 19.4145 0.698593 19.4025 0.711082C19.3912 0.722804 19.3808 0.725 19.375 0.725H0.625C0.619178 0.725 0.608809 0.722805 0.597537 0.711082C0.585528 0.698592 0.575 0.677009 0.575 0.65C0.575 0.622991 0.585528 0.601408 0.597537 0.588918ZM0.597537 4.48892C0.608808 4.4772 0.619177 4.475 0.625 4.475H19.375C19.3808 4.475 19.3912 4.4772 19.4025 4.48892C19.4145 4.50141 19.425 4.52299 19.425 4.55C19.425 4.57701 19.4145 4.59859 19.4025 4.61108C19.3912 4.6228 19.3808 4.625 19.375 4.625H0.625C0.619177 4.625 0.608808 4.6228 0.597537 4.61108C0.585528 4.59859 0.575 4.57701 0.575 4.55C0.575 4.52299 0.585528 4.50141 0.597537 4.48892ZM0.575 8.45C0.575 8.42299 0.585529 8.40141 0.597537 8.38892L0.183058 7.99038L0.597537 8.38892C0.608808 8.3772 0.619177 8.375 0.625 8.375H19.375C19.3808 8.375 19.3912 8.3772 19.4025 8.38892C19.4145 8.40141 19.425 8.42299 19.425 8.45C19.425 8.47701 19.4145 8.49859 19.4025 8.51108C19.3912 8.5228 19.3808 8.525 19.375 8.525H0.625C0.619177 8.525 0.608808 8.5228 0.597537 8.51108C0.585528 8.49859 0.575 8.47701 0.575 8.45ZM0.597537 12.2889C0.608808 12.2772 0.619177 12.275 0.625 12.275H13.125C13.1308 12.275 13.1412 12.2772 13.1525 12.2889C13.1645 12.3014 13.175 12.323 13.175 12.35C13.175 12.377 13.1645 12.3986 13.1525 12.4111C13.1412 12.4228 13.1308 12.425 13.125 12.425H0.625C0.619179 12.425 0.608809 12.4228 0.597537 12.4111C0.585529 12.3986 0.575 12.377 0.575 12.35C0.575 12.323 0.585528 12.3014 0.597537 12.2889Z" fill="currentColor" stroke="currentColor" stroke-width="1.15"></path>
  </symbol>
  <symbol fill="none" xmlns="http://www.w3.org/2000/svg" viewBox="0 0 21 21" id="ic_price">
    <path d="M8.35872 7.41667L12.8607 1L18.1121 4.67906L16.1973 7.41667H8.35872ZM8.35872 7.41667H3.75977L7.51377 2.06927L10.6256 4.20833L8.35872 7.41667Z" stroke="currentColor" stroke-width="0.92" stroke-linecap="round" stroke-linejoin="round"></path>
    <path d="M19.1807 7.41675H2.06927C1.47894 7.41675 1 7.89569 1 8.48602V19.1808C1 19.7711 1.47894 20.2501 2.06927 20.2501H19.1807C19.7711 20.2501 20.25 19.7711 20.25 19.1808V8.48602C20.25 7.89569 19.7711 7.41675 19.1807 7.41675Z" stroke="currentColor" stroke-width="0.92" stroke-linecap="round" stroke-linejoin="round"></path>
    <path d="M14.9033 11.6951H20.2507V15.9732H14.9033C14.7628 15.9732 14.6237 15.9455 14.4939 15.8917C14.3642 15.838 14.2463 15.7592 14.147 15.6598C14.0477 15.5605 13.9689 15.4425 13.9152 15.3128C13.8615 15.183 13.8339 15.0439 13.834 14.9034V12.7649C13.834 12.4812 13.9466 12.2092 14.1471 12.0086C14.3476 11.808 14.6196 11.6952 14.9033 11.6951Z" stroke="currentColor" stroke-width="0.92" stroke-linecap="round" stroke-linejoin="round"></path>
  </symbol>
  <symbol fill="none" xmlns="http://www.w3.org/2000/svg" viewBox="0 0 39 33" id="ic_tg">
    <path d="M36.3333 1C37.4735 1 38.3337 1.99882 37.8736 3.85663L32.2927 30.1257C31.9026 31.9935 30.7724 32.4429 29.2122 31.574L15.9001 21.7555C15.8484 21.7185 15.8064 21.6698 15.7774 21.6134C15.7483 21.5569 15.7332 21.4944 15.7332 21.4309C15.7332 21.3675 15.7483 21.3049 15.7774 21.2485C15.8064 21.192 15.8484 21.1433 15.9001 21.1063L31.2725 7.24264C31.9726 6.62337 31.1225 6.32372 30.2024 6.88307L10.9092 19.0387C10.8507 19.0768 10.7843 19.1011 10.715 19.1098C10.6457 19.1185 10.5753 19.1112 10.5092 19.0887L2.31786 16.5017C0.497567 15.9724 0.497567 14.7238 2.72793 13.8349L35.5032 1.20975C35.7635 1.08622 36.0456 1.01495 36.3333 1Z" stroke="currentColor" stroke-width="0.5" stroke-linecap="round" stroke-linejoin="round"></path>
  </symbol>
  <symbol fill="none" xmlns="http://www.w3.org/2000/svg" viewBox="0 0 16 21" id="ic_duration">
    <path d="M10.9319 10.5004C13.076 8.80097 15.5391 6.67883 15.972 3.47681C16.0911 2.59645 15.8191 1.70996 15.2262 1.04313C14.636 0.379797 13.7844 0 12.8893 0H3.11047C2.21534 0 1.36378 0.381548 0.773544 1.04401C0.180646 1.71259 -0.0922475 2.59995 0.0277544 3.48118C0.462428 6.68058 2.9238 8.80185 5.06694 10.5004C2.9238 12.199 0.462428 14.3203 0.0277544 17.5197C-0.0913586 18.3992 0.179757 19.2865 0.773544 19.9534C1.36555 20.6185 2.2189 21 3.1158 21H12.884C13.7809 21 14.6351 20.6185 15.2262 19.9542C15.8191 19.2874 16.0911 18.4018 15.9729 17.5241C15.54 14.322 13.076 12.1999 10.9319 10.5004ZM14.5569 19.3784C14.1338 19.8545 13.524 20.1266 12.8831 20.1266H3.11491C2.47401 20.1266 1.86512 19.8536 1.442 19.3775C1.0171 18.8997 0.822433 18.2653 0.907768 17.637C1.32466 14.5671 3.94693 12.5018 6.05451 10.8426C6.16029 10.7595 6.22163 10.6343 6.22163 10.5004C6.22163 10.3665 6.16029 10.2414 6.05451 10.1583C3.94782 8.49906 1.32555 6.4338 0.907768 3.36392C0.821544 2.73297 1.0171 2.09764 1.442 1.61983C1.86334 1.14552 2.47135 0.873359 3.10958 0.873359H12.8884C13.5275 0.873359 14.1346 1.14552 14.556 1.61895C14.9809 2.09589 15.1747 2.73122 15.0893 3.35954C14.6742 6.43205 12.0511 8.49819 9.94346 10.1583C9.83857 10.2414 9.77635 10.3665 9.77635 10.5004C9.77635 10.6343 9.83768 10.7595 9.94346 10.8426C12.0511 12.5018 14.6742 14.5688 15.0893 17.6413C15.1747 18.2688 14.9809 18.9015 14.5569 19.3784ZM8.65455 12.9892C8.57011 12.9227 8.49011 12.8519 8.41544 12.7757C8.24833 12.6086 7.94699 12.6086 7.77899 12.7757C7.70432 12.8519 7.62521 12.9227 7.53898 12.9892C5.7274 14.4166 3.85359 15.8911 3.31936 17.8225C3.28292 17.9537 3.31136 18.0955 3.39492 18.204C3.47936 18.3125 3.61003 18.3755 3.74781 18.3755H12.4422C12.5808 18.3755 12.7124 18.3125 12.7951 18.204C12.8795 18.0955 12.9071 17.9546 12.8697 17.8225C12.3248 15.8797 10.3728 14.343 8.65189 12.9892H8.65455ZM4.3816 17.5004C5.03405 16.0836 6.58697 14.8594 8.09721 13.671C9.5319 14.8007 11.1364 16.0635 11.8075 17.5004H4.3816Z" fill="currentColor"></path>
  </symbol>
  <symbol fill="none" xmlns="http://www.w3.org/2000/svg" viewBox="0 0 21 22" id="ic_remove">
    <path d="M8.88461 8.25C8.88461 8.14581 8.84207 8.04588 8.76633 7.97221C8.6906 7.89853 8.58788 7.85714 8.48077 7.85714C8.37366 7.85714 8.27094 7.89853 8.19521 7.97221C8.11947 8.04588 8.07692 8.14581 8.07692 8.25V16.8929C8.07692 16.997 8.11947 17.097 8.19521 17.1706C8.27094 17.2443 8.37366 17.2857 8.48077 17.2857C8.58788 17.2857 8.6906 17.2443 8.76633 17.1706C8.84207 17.097 8.88461 16.997 8.88461 16.8929V8.25ZM12.5192 7.85714C12.6263 7.85714 12.7291 7.89853 12.8048 7.97221C12.8805 8.04588 12.9231 8.14581 12.9231 8.25V16.8929C12.9231 16.997 12.8805 17.097 12.8048 17.1706C12.7291 17.2443 12.6263 17.2857 12.5192 17.2857C12.4121 17.2857 12.3094 17.2443 12.2337 17.1706C12.1579 17.097 12.1154 16.997 12.1154 16.8929V8.25C12.1154 8.14581 12.1579 8.04588 12.2337 7.97221C12.3094 7.89853 12.4121 7.85714 12.5192 7.85714ZM14.1346 3.53571V3.92857H20.5962C20.7033 3.92857 20.806 3.96996 20.8817 4.04364C20.9575 4.11731 21 4.21724 21 4.32143C21 4.42562 20.9575 4.52555 20.8817 4.59922C20.806 4.6729 20.7033 4.71429 20.5962 4.71429H18.5422L17.2273 18.7841C17.1452 19.6629 16.7283 20.4801 16.0585 21.0751C15.3887 21.6702 14.5143 22.0001 13.6072 22H7.39281C6.48569 22.0001 5.61133 21.6702 4.9415 21.0751C4.27166 20.4801 3.85477 19.6629 3.77273 18.7841L2.45781 4.71429H0.403846C0.296739 4.71429 0.19402 4.6729 0.118284 4.59922C0.042548 4.52555 0 4.42562 0 4.32143C0 4.21724 0.042548 4.11731 0.118284 4.04364C0.19402 3.96996 0.296739 3.92857 0.403846 3.92857H6.86538V3.53571C6.86538 2.59798 7.24832 1.69866 7.92994 1.03559C8.61156 0.372512 9.53604 0 10.5 0C11.464 0 12.3884 0.372512 13.0701 1.03559C13.7517 1.69866 14.1346 2.59798 14.1346 3.53571ZM7.67308 3.53571V3.92857H13.3269V3.53571C13.3269 2.80637 13.0291 2.1069 12.4989 1.59117C11.9688 1.07545 11.2497 0.785714 10.5 0.785714C9.75025 0.785714 9.03121 1.07545 8.50106 1.59117C7.97091 2.1069 7.67308 2.80637 7.67308 3.53571ZM3.26954 4.71429L4.578 18.7134C4.64187 19.3965 4.96593 20.0318 5.48656 20.4946C6.00719 20.9573 6.6868 21.214 7.392 21.2143H13.6064C14.3119 21.2144 14.9919 20.9578 15.5128 20.4951C16.0338 20.0323 16.3581 19.3968 16.422 18.7134L17.7313 4.71429H3.26954Z" fill="currentColor"></path>
  </symbol>
  <symbol fill="none" xmlns="http://www.w3.org/2000/svg" viewBox="0 0 18 21" id="ic_user">
    <path d="M9 0C7.60761 0 6.27226 0.553123 5.28769 1.53769C4.30312 2.52226 3.75 3.85761 3.75 5.25C3.75 6.64239 4.30312 7.97775 5.28769 8.96231C6.27226 9.94688 7.60761 10.5 9 10.5C10.3924 10.5 11.7277 9.94688 12.7123 8.96231C13.6969 7.97775 14.25 6.64239 14.25 5.25C14.25 3.85761 13.6969 2.52226 12.7123 1.53769C11.7277 0.553123 10.3924 0 9 0ZM4.5 5.25C4.5 4.05653 4.97411 2.91193 5.81802 2.06802C6.66193 1.22411 7.80653 0.75 9 0.75C10.1935 0.75 11.3381 1.22411 12.182 2.06802C13.0259 2.91193 13.5 4.05653 13.5 5.25C13.5 6.44347 13.0259 7.58807 12.182 8.43198C11.3381 9.27589 10.1935 9.75 9 9.75C7.80653 9.75 6.66193 9.27589 5.81802 8.43198C4.97411 7.58807 4.5 6.44347 4.5 5.25ZM2.625 12C1.92881 12 1.26113 12.2766 0.768845 12.7688C0.276562 13.2611 0 13.9288 0 14.625V15.1252C0 16.7377 2.0745 21 9 21C15.9255 21 18 16.737 18 15.1252V14.625C18 13.9288 17.7234 13.2611 17.2312 12.7688C16.7389 12.2766 16.0712 12 15.375 12H2.625ZM0.75 14.625C0.75 14.1277 0.947544 13.6508 1.29917 13.2992C1.65081 12.9475 2.12772 12.75 2.625 12.75H15.375C15.8723 12.75 16.3492 12.9475 16.7008 13.2992C17.0525 13.6508 17.25 14.1277 17.25 14.625V15.1252C17.25 16.263 15.5738 20.25 9 20.25C2.42625 20.25 0.75 16.263 0.75 15.1252V14.625Z" fill="currentColor"></path>
  </symbol>
  <symbol fill="none" xmlns="http://www.w3.org/2000/svg" viewBox="0 0 35 35" id="ic_whatsapp">
    <path d="M17.5706 1C8.40926 1.01002 0.989989 8.44471 1.00001 17.6061C1.00235 20.3861 1.70402 23.121 3.04041 25.5588L1.76853 33.375L9.58478 32.1031C17.6092 36.5046 27.6839 33.5685 32.0854 25.5433C36.4869 17.5182 33.5515 7.44494 25.5264 3.04271C23.0881 1.70514 20.3517 1.00266 17.5706 1ZM9.28416 8.53104H13.8012C14.0057 8.53104 14.2017 8.61225 14.3463 8.75681C14.4909 8.90137 14.5721 9.09744 14.5721 9.30188C14.5468 10.3299 14.7195 11.3531 15.0808 12.3158C15.2364 12.6381 15.2706 13.0057 15.1772 13.3511C15.0837 13.6966 14.8689 13.9968 14.5721 14.1967L12.9919 15.7383C13.6925 17.1066 14.6087 18.3533 15.7052 19.4306C16.7738 20.545 18.0154 21.4795 19.3821 22.1979L20.9237 20.6177C21.6946 19.8469 22.0492 19.8469 22.8046 20.109C23.7673 20.4703 24.7905 20.643 25.8185 20.6177C26.0199 20.6271 26.2106 20.7113 26.3532 20.8539C26.4958 20.9965 26.58 21.1871 26.5894 21.3885V25.9056C26.58 26.107 26.4958 26.2977 26.3532 26.4403C26.2106 26.5829 26.0199 26.6671 25.8185 26.6765C21.2842 26.4789 16.9861 24.5992 13.7627 21.404C10.5625 18.184 8.68185 13.8838 8.4902 9.34813C8.49203 9.13595 8.57557 8.93265 8.72343 8.78047C8.8713 8.6283 9.07212 8.53897 9.28416 8.53104Z" stroke="currentColor" stroke-width="0.5" stroke-linecap="round" stroke-linejoin="round"></path>
  </symbol>
</svg>